<svg id="Ebene_1" xmlns="http://www.w3.org/2000/svg" viewBox="0 0 584 101"><style>.st0{fill:#65beec}.st1{fill:#000f3d}</style><path class="st0" d="M230.6 17.9c.7-.3 1.8-.1 2.5-.3h.5c.5.1 1 .1 1.5-.1 2.2-.6 4.7-.4 7-.7h.5c1.9-.4 3.8-.3 5.8-.3 0-.1.1-.1.2-.2h.5c2.5-.6 5.3-.4 8-.8h.5c.3-.1.7-.1 1-.2 3.7 0 7.4-.8 11.1-.5.4 0 1 0 1.4-.2 1.1-.2 2.3-.4 3.5-.2h.5c.7-.3 1.7 0 2.5-.3 1.9-.4 4-.1 6-.5 2.4-.1 4.7-.3 7.1-.4.2 0 .3 0 .4.1-.2.1-.3.2-.5.3-.6.2-1.5 0-2 .3l-1.5.1c-.7-.1-1.3-.1-2 .1-.3 0-.7 0-1 .1-1.9.4-4 .1-6 .5-.2 0-.5-.1-.7-.1-1.5.2-3.1.2-4.6.4-1.6.2-3.1.3-4.6.4-.7 0-1.3.1-2 .1-1.8.1-3.5.3-5.3.4-1 .1-2 .1-2.9.3-.5.1-1.1.1-1.7.2-1.7.1-3.3.2-5 .3h-.2c-.1 0-.2 0-.3.1-.6.2-1.2.1-1.8.2 0 0 0 .1-.2.1-.8 0-1.7.1-2.5.1-1.9.1-3.8.2-5.6.5-.6.1-1.3.1-1.9.2-2.9.2-5.9.5-8.8.9-1.3.2-2.6.3-3.9.4-1.2.1-2.5.2-3.6.4s-2.2.2-3.3.2-.7-.2-.2-.5c3.4-.5 6.8-1.2 10.5-1.1h.5c-.1-.1.2-.2.6-.3zM24.5 85.1c-.4-.2 1.8-.6 3.9-.7 1.2-.1 3.1 0 3.5.1.3.2.1.3-2.1.5-2.3.2-5 .3-5.3.1zM89 96.9c1.2 0 2.5.1 1.7.2s-1.9.2-2.8.3c-3.4.1-6.7.2-10.5.3 3.3-.4 6.4-.5 9.6-.7.7-.1 1.3-.1 2-.1zM27.4 99.5c.8 0 1.9-.1 2.9-.1s2.2 0 1.6.1c-.4.1-1.3.2-2.2.3-1.7.1-3.5.2-5 .2-.5 0-.9-.1-.9-.1s.7-.1 1.2-.2c.7-.1 1.4-.1 2.4-.2zM50.8 87.5c2 0 3.7.1 5.5.2.4 0 .7.1.4.2-.8.1-1.8.1-2.7.1-2.5-.1-4.9-.1-7.3-.2 1.4-.2 3-.3 4.1-.3zM23.7 91.1c-.1.2-1.2.3-2.8.4-1.6.1-2.4 0-2.3-.2s1.4-.3 2.9-.4c1.8 0 2.2.1 2.2.2zM195.4 86.7c-2.1.1-4.2.2-6.4.3 1-.4 1-.4 6.3-.7 0 .1 0 .2.1.4zM99.7 94.9h.7c-.3 0-.4.1-.7 0-2 .3-4 .4-6 .4-.1 0-.1-.1 0-.1l6-.3zM40.9 98.9c.5-.1 1.3-.1 1.9-.1h2.9c1.6-.3 3.2-.3 4.8-.3.7-.1 1.3-.1 1.9-.1 1.9-.1 3.5-.2 4.6-.1 2-.1 4-.1 5.9-.2 3.3 0 3.4.2.1.6-1.1.1-2.5.2-3.8.4-1.7.3-4.2.4-6.8.6-2.7.4-6 .6-9.5.8h-1.7c-.3-.1-.4-.2 0-.3.9-.2 2.5-.4 4.3-.4h.1l2.1-.3-.3-.1.1-.1c-1.1 0-1.8 0-2.1-.1h-.1c-2.4.1-3.2-.1-4.6-.2-.3.1-.4 0 .2-.1zM45.2 88.7c-.9 0-1.1 0-.5-.1.4-.1 1.1-.1 1.7-.2.2 0 .7.1.5.1-.2.1-1.1.2-1.7.2zM2.3 50.3c.5 0 .8 0 1.2.1-.3.1-.6.2-1 .2H.8c-.6-.1.5-.2 1.5-.3zM34.7 92.5l-.1-.2c.7 0 1.4-.1 2-.1.4 0 .6 0 .8.1 0 0-.4.1-.7.1-.6 0-1.3 0-2 .1zM516.4 66.3c4.4 0 4.5 0 2 .5-.6 0-1.3.1-1.9.1-.1-.1-.2-.1-.3-.2-1.1 0-1.1-.1 0-.2.1-.1.2-.1.2-.2zM152.1 84.9c.6-.1-.1.2-.3.4-3.6.2-7.1.4-10.7.6-.7-.2-4.2.1-4.6-.1 1.1-.1 2.1-.1 3.2-.2 4.1-.4 7.9-.3 12.4-.7zM299.7 80.6c.4-.2 1.5-.2 2.3-.2s1.3.1 1.9.1c-.1.1-.1.3-.2.4-.7 0-1.4.1-2.1.1-2.4 0-2.5-.2-1.9-.4zM279.9 82.4c-2.1.4-5.1.6-8.4.9-1-.2-1.6-.3 2-.5 2.1-.2 4.2-.3 6.4-.4zM195 85.5c.9-.1 2.1-.2 3-.2 1.4 0 1.6.1 1.7.3-1.1.1-2.1.1-3.2.2-1.1 0-2.1.1-2.3-.1-.1 0 .4-.2.8-.2zM40.5 75.2l4.2-.6 7.2-.6h1.7c.2 0 0 .1-.3.2-.6.1-1.5.2-2.3.3-3.3.5-6.9.6-10.5.7zM12.7 62.7c-.2.1-.6.2-1 .2-2.7.2-5.6.4-8.1.4-.6 0-.5-.2-.8-.2 2.7-.2 5.5-.3 8.2-.5.9 0 2 0 1.7.1zM36.3 81.3c1.4 0 2.6 0 1.7.2-1.5.3-2.9.2-3.9.1.7 0 1.5-.2 2.2-.3zM322.6 80.4h2.9c1.1 0 .9.1 0 .2-.8.1-1.5.2-2.3.3-.6 0-1.1.1-1.7.1h-.8c-.7 0-1.3.1-1.8.2-2.7.1-5.4.3-8.2.4-.3-.4-5.1 0-7.5-.2 7-.4 13.2-.7 19.4-1zM352.4 78.1c2.4-.1 3.6 0 3.5.2-.6.1-1.4.2-2.3.2-2.9.1-6.4.3-6.4-.1 1.8-.1 3.5-.2 5.2-.3zM292.6 81.9c1.8-.1 3.6-.2 5-.1.2 0 .6 0 .6.1.1.1-.4.2-1.2.2-2.1.1-4.2.2-6.3.2-.4 0-.6-.1-.7-.1 0 0 .3-.1.6-.1.6-.1 1.3-.1 2-.2zM342.8 78.9c-.9.2-2.5.3-4.2.4-.7 0-1.4-.1-2.2-.1h-.1c2.2-.5 4.3-.3 6.5-.3zM325.8 79.6l.1-.1c1.9-.2 3.8-.3 5.7-.5-.6.5-.6.5-5.8.6.1.1 0 0 0 0zM545.8 52c3.5-.1 7-.2 10.4-.3.9 0 1.2 0 .8.1-.3.1-.8.2-1.4.2-.6.1-1.5.1-2.1.1-5.3.1-10.5.4-15.8.9-4.5.4-8.4.4-11.6.2 2.4-.4 5.7-.5 8.7-.7 3.8-.1 7.4-.3 11-.5zM545.3 35.2c-.6.1-1.5.3-2.2.3-2.4-.2-6.2.2-8.9.1-2.3 0-3.2-.2-2.8-.5s2.4-.4 4.6-.6c11-.9 22.2-1.3 33.3-1.9 1.5-.1 2.6 0 3.5 0-4.3.8 4.7.1 4.2.4-.8.1-1.6.3-2.5.3-5.4.3-10.7.6-16 .8-5 0-9.8.4-13.2 1.1zM471.6 47.1c2.7-.2 5.4-.3 8.1-.5 1.8-.1 3.3-.1 4.9-.2 1.4.3-3.4.4-4.3.6-3.7.3-7.1.4-8.7.1zM249.4 10.1c-.5.1-1.1.2-1.7.3-.2 0-.4.1-.7.1-.5.1-1.1.1-1.6.2-.3 0-.7.1-1 .1-1-.1-2 .1-2.9.3-.2 0-.4.1-.7.1-.7.1-1.3.2-2 .3-.5.1-.9.1-1.4.1-1.1 0-2.1.1-3.2.3-.2 0-.5.1-.7.1-.8.1-1.6.1-2.4.3-.5.1-.9.1-1.4.1s-1.1-.1-1.6.1c-.3.2-.8.2-1.3.3-.6 0-1.1.1-1.7.2-.2 0-.5.1-.7.1-.8.1-1.6-.2-2.3.1-.8 0-1.7.1-2.5.1-.7.3-1.8 0-2.5.3l-1.5.1c-.6 0-1.2.1-1.7.1-.4 0-.9.1-1.3 0 1-.3 1.9-.4 2.9-.4.7 0 1.5-.1 2.2-.2 3.5-.4 6.9-.9 10.4-1.1.3 0 .7 0 1-.1 2.8-.4 5.6-.8 8.5-1 .3 0 .6-.1.8-.2.4-.2.9-.2 1.4-.3 1 0 1.9.1 2.9-.2.2-.1.4-.1.6-.2l1.8-.3c.5-.1 1-.1 1.5-.1.9.1 2-.2 2.9 0 .2.3.1.4-.1.4zM460 40.6c-.3.1-.7.1-1 .1-.5 0-1 .1-1.5.1-2.2 0-4.3.1-6.5.3h-.5-.2c-.1 0-.2 0-.3.1h-.5c-.4-.1-.8 0-1.2-.1-1 .2-2.3 0-3.3.3h-.4c-.3 0-.6-.1-.9-.1-2.1.1-4.1.1-6.2.3-2.9.2-5.8.3-8.7.5-1.5.1-3 .2-4.5.2h-1.2c-.2 0-.3-.1-.2-.1.1-.1.2-.1.3-.1.7-.1 1.5-.1 2.2-.2 7.3-.4 14.7-.8 22-1.2.1-.1.2-.1.4-.2 1.4-.2 2.8-.2 4.2-.3 2.6-.2 5.1-.1 7.7-.2 8.3-.5 16.6-.7 24.9-1.1.7 0 1.5-.1 2.2 0 .2 0 .4.1.5.1 2.3-.1 4.6-.2 6.9-.4.3.1.3.2 0 .4-.3 0-.7 0-1 .1s-.7.1-1 0c-1.3-.2-2.7.2-4 .2-.2-.1-.7 0-.9-.1-.1.1-.3.2-.5.3s-.5.1-.8.1c-3 0-6 .2-9 .5h-.8c-1.2-.1-2.5.1-3.7.2h-.8c-3.2.1-6.4.2-9.7.3-.3 0-.5-.1-.8-.1-.2-.1-.7-.1-1.2.1zM440.9 2h-1c-1 0-1.8-.1-1.6-.2.4-.2 1-.1 1.6-.2h1s.1 0 .1.1c.1.1.4.1.4.2.1.1-.3.1-.5.1zM348 9.7c-.7.3-1.8.1-2.5.3-.3 0-.7 0-1 .1-2.6.4-5.4.2-8 .6-.3.1-.7.1-1 .1h-.5-.2c-.1 0-.2 0-.3.1-.6 0-1.3-.1-1.9-.1-1.4 0-2.8.1-4.1.2-1.1 0-2.2 0-3.2-.2 2-.3 3.9-.3 5.7-.4.7 0 1.5 0 2.1-.3l1-.1h.2c.1 0 .2 0 .4-.1.5 0 1-.1 1.5-.1.5-.2 1-.2 1.5-.1h.2c.1 0 .2 0 .3-.1.3 0 .7 0 1-.1 2-.1 3.9-.1 5.8-.3 1.4-.2 2.7-.3 4.1-.4.8 0 1.7-.1 2.6-.1-.6.6-1.9.7-3 .9-.4.1-.6.1-.7.1zM401.8 6c-2.2.4-4.4.3-6.6.5-2.8.2-5.5.6-8.4.6-.2 0-.5 0-.7.1-1 .2-2.1.2-3.2.3-.6 0-1.2 0-1.7.1-.7.1-1.3.1-1.9.1h-3c-.1 0-.2-.1-.2-.1s.1-.1.2-.1c.2 0 .5-.1.7-.1 2.9 0 5.6-.6 8.5-.6.7 0 1.1-.2 1.1-.4-3.3.2-6.7.3-9.9.7-2 .2-4 .1-5.9.5-1.8 0-3.6.4-5.4.3-.3 0-.7 0-1 .1-1 .2-2.1.2-3.2.3-1.6.1-3.2.2-4.9.3-.3 0-.7.1-.9-.1-.4-.3-1.3-.3-2.1-.3-.5 0-.6-.1-.7-.3h.5c1.4.2 2.1.1 3.5-.2 1.2-.1 2.3-.1 3.5-.2 2.7-.3 5.5-.6 8.3-.7.5 0 1.1-.2 1.6-.2.5.2 1 .2 1.5-.1 1.2.1 2.5 0 3.8 0 .7 0 1.4-.1 2.2-.1.7-.2 1.4-.3 2.1-.3s1.4 0 2-.1c2.1-.3 4.2-.4 6.4-.5 2.9-.2 5.8-.3 8.7-.5 1.1-.1 2.3-.1 3.3 0 .4.1-1.3.4-3.3.5-.6 0-1.2.1-1.7.1-.3.2-.8.2-1.3.2-.7 0-1.5.1-2.2.1-.5 0-1 .1-1.5.1.3.1.8.1 1.3.1 1.2-.1 2.4-.1 3.6-.2s2.3-.1 3.4-.2c3.2-.4 6.4-.4 9.6-.6.6 0 .8.1.9.3-1.2.1-2.5.1-3.7.2-.9.2-2 .5-3.3.4z"/><path class="st0" d="M370 8l2.1-.3c.8-.1 1.7-.1 2.6-.2.1 0 .3.1.3.1l-.2.2c-.6.2-1.5 0-2 .3-1.2.1-2.3.1-3.5.2.1-.1.2-.2.7-.3zM454 2c.3 0 .3.2.4.3-1.2.1-2.2-.1-3.4 0 .9-.4 2-.4 3-.3zM369.8 9.1c-.6.1-1.3.1-2.3.1.9-.1 1.5-.2 2.1-.3.1 0 .3 0 .4.1 0 0-.1.1-.2.1zM467.4 2.7h-.9c0-.2.1-.3.5-.4h1c.1.3.1.3-.6.4zM421.5 1.4c-2.1 0-4.2 0-6.1-.3.3-.1.6-.1.9-.1h2.4c1.1 0 2.3 0 3.3.2.3 0 .6 0 .5.1 0 0-.4.1-.6.1h-.4zM7.8 35.3c.2 0 .4.1.3.2-.4.2-.7.4-.9.6 0 0-.3.1-.4.1s-.3-.1-.3-.1c.1-.5-1-.5-1.6-.6-.5-.1-1.2-.1-1.1-.4 0-.1-.3-.2-.4-.3v-.1l-.1-.1c-.3-.1-.3-.2 0-.4.4.1.8.2 1.3.2 1 0 1.1.3 1.3.5.5.2.7.6 1.9.4zM13 30.5h-.5c-.5.1-.9.4-1.5.2-.4-.1-.3-.3 0-.5.7-.1 1.3-.2 2-.3.8.1.8.3 0 .6zM9.4 56.7c0-.1 0-.2.1-.4 0 0 .2-.1.3-.1.2 0 .5 0 .6.1s.1.2.2.3c.3.1.7.1 1 .2.4.1.6.2.3.4-.3.1-.6.1-.8 0-.4-.2-1-.1-1.5-.1-.2 0-.3 0-.5.1h-.5c-.3-.1-.9-.1-.5-.3h1c0-.1.2-.1.3-.2zM412.8 4.4c-.3 0-.5.1-.7.2-.6 0-1.1.1-1.7.1s-.7-.1-.5-.4c0-.1.1-.1.2-.2h.5c.8 0 1.7-.1 2.5-.1h.5c0 .2-.2.4-.8.4zM533 4.7c-.4 0-.7-.1-1-.2-.8-.2-1.7.1-2.5 0h-.5c-.4-.2-1.1 0-1.5-.1h-1c-.5-.4-.5-.4.5-.6h.5c.6.2 1.4-.1 2 .1.8.2 1.7-.1 2.5 0h.5c.3.1.6.1 1 .1.8 0 2.4-.2 2.1.3-.3.5-1.7.4-2.6.4zM525.2 4c0 .2-.1.3-.8.3h-.9c-1.2-.1-2.3-.2-3-.6l1.5-.1c1.1.1 2.5-.2 3.5.2-.2 0-.3.1-.3.2zM94.2 24.1c-1 0-1.9.2-2.8.2-.8 0-1.6-.1-2.5 0-2 .1-3.8.3-5.7.6-2.1.4-4.7.3-7 .6-.1 0-.1 0-.2-.1-1.4 0-2.8.3-4.2.2-.2.1-.5.2-.9.2 0 .1 0 .1-.1.2-1.8.4-3.8.4-5.6.6h-.7c-.5 0-.9.1-1.3.1-1.7.2-3.4.3-4.9.6-.2 0-.5.1-.7.1-1.2.1-2.4.3-3.6.4-1.5.1-3 .6-4.5.2-.1-.1-.1-.1-.1-.2h-.3c-1.4.5-3 .3-4.5.5h-.7c-.6 0-1.2.1-1.7.2-1.8.1-3.7.3-5.5.2l-.1-.1c-.5.4-.8.4-1.1.4-.1 0-.1 0-.2-.1h-.2c0 .1 0 .1-.1.2-.6.2-1.2.3-1.5 0H32.9c-1.5.2-2.9.3-4.4.2v.2h-.7c-.8-.3-1.7-.4-3-.2-.6.1-.8-.1-.9-.3-.5.1-.7.4-1.5.4-.5-.3-1.4 0-2-.1h-.5c-.2-.1-.3-.1-.5-.2 0-.2.1-.3.6-.4.6-.1 1.2-.2 1.9-.3 1.4 0 2.8-.4 4.3-.3.2 0 .6-.1.9-.2.4-.1.8-.2 1.3-.3l-.3-.6c-.1-.2.1-.3.6-.3.4 0 .8 0 1.2-.1 1-.1 1.9-.4 3-.3.3-.1.6-.2 1.1-.2s1-.1 1.5-.1.8-.4 1.2-.2c.5.2-.1.4-.4.6-.3.2-.5.4-.8.6-.9.3-1.8.4-2.8.3-.1 0-.1-.1-.2-.1h-.2c-.2.1-.7.3.2.2.7 0 1.4 0 2.2-.1h.9c.7 0 1.3-.1 2-.1 1-.3 2-.4 3-.2.5 0 1 0 1.5-.1.2-.2.6-.2 1-.2h.5c.2-.1.3-.2.5-.4.1-.1.4-.2.5-.2.7.2 1.1 0 1.6-.2.3-.1.6-.2.9-.1.6.2 1.3 0 1.9-.1.7-.1 1.5-.2 2.2-.2.5 0 .7.1.9.2.7 0 1.3-.1 2-.1 3.1-.3 6.3-.6 9.4-.7h.5v-.2c3.2-.2 6.4-.4 9.6-.5 3.3-.1 6.6-.3 9.8-.5 3.2-.3 6.5-.5 9.7-.7h.8c.8.1 1.9.1 1.6.6-.5.4-.9.5-1.3.5zM19.6 24c-.1 0-.3.1-.4.1-1 .1-2 .1-2.9.3-.2 0-.6 0-.9-.1-.6-.1-.2-.2-.1-.4.4 0 .7-.1 1-.2.4 0 .8-.1 1.2-.1.6-.1 1.1-.2 1.7-.2.4 0 .8 0 1 .2 0 .2-.2.3-.6.4zM55 21.9v.4c.3 0 .3.1 0 .2-1.8.3-1.8.3-4.1.3-.3 0-.6.1-1 .1-2.6.3-5.2.5-7.8.6-1.1.2-1.5-.2-2.4-.4-.1.5-.8.7-2 .8-.9.1-1.7.3-2.6.3-.9 0-1.8.1-2.6.3-.5.1-.9.1-1.4.1.3-.2.9-.3 1.4-.4 2.4-.3 4.5-.7 6.5-1.3.7 0 1.3-.1 2-.1.3-.2.9-.2 1.5-.3l1-.1c.3 0 .7 0 1-.1.3 0 .6-.2.9-.1 0 0 .1-.1.3-.1.7-.2 1.4-.2 2.1-.3-.3 0-.5 0-.8-.1-.4 0-.8 0-1-.1v-.2-.2-.2c.6-.1 1.2-.2 1.8-.4.6-.1 1.2-.2 1.9-.2.1 0 .3 0 .3.1 0 0 0 .1-.1.2-.5.2-1.2.3-1.4.6.3.1.8.1 1.3.1 1-.1 2.1-.1 3.1-.2.1-.1.2-.2.3-.2 1.7-.4 3.5-.2 5.2-.2-.8.2-1 .7-2 .8-.4.3-.9.3-1.4.3zM36.2 24.8c1.3-.1 2.6-.1 3.9-.2.6 0 1.2 0 1.6-.3.3-.1.7-.2 1-.1.7 0 1.3-.1 2-.1.3 0 .7 0 .6.2 0 .1-.4.2-.6.2-1.7 0-3.4.3-5.1.3-.2 0-.5.1-.7.1-.8.2-1.8.2-2.7.3-1.4.4-2.9.4-4.3.4-.5 0-.9-.1-1.1-.3h.4c1-.1 1.9-.1 2.8-.2.8-.2 1.5-.3 2.2-.3zM25.1 22.4c-1.2.1-2.5.1-3.7.3-.3 0-.5 0-.5-.1-.1-.1.1-.2.3-.2.3-.1.8-.2 1.2-.2.9-.1 1.8-.1 2.7-.2h.5c.3.2-.3.2-.5.4zM55.6 23.3c-2.3.2-4.5.7-7 .6 2.3-.5 4.6-.6 7-.6z"/><path class="st0" d="M41.7 25.7c-.6 0-1-.2-.9-.4 0-.2.6-.3 1-.4.7-.1.8.1.9.2.3.2 1.2 0 1.6.2-.7.2-1.6 0-2 .4-.2 0-.4.1-.6 0zM22.5 25.1c-.8.3-1.5.5-2.4.4-.2 0-.5-.1-.5-.1 0-.2.3-.2.7-.2h.6c.5-.1 1-.1 1.6-.1-.1-.1 0-.1 0 0zM40.2 26.7c1.1-.1 1.5-.5 2.3-.2 0 0 .1.1 0 .1-.5.2-1.1.1-2.3.1zM25.8 26.1c-.2.1-.3.1-.5.2-.6.2-.6.5-1.5.7v-.6c-.1-.1-.3-.2-.6-.2-.4 0-.8.1-1 .2-.1.1-.1.2-.2.3-.5.2-1.2.2-1.6 0-.3-.2-.6-.2-1.1-.2-1 0-1.9.3-2.9.3-1.4-.2-2.1-.1-3.5.2-.5 0-1 .1-1.5.1-.7 0-1.3.1-2 .1v.2H7.9c-.4 0-.8 0-1.2.1-.3 0-.6 0-.6-.2 0-.1.4-.2.7-.2.2-.1.4-.2.5-.3.2-.1.3-.1.5-.2v-.2c.4 0 .8 0 .9.2v.1c.1.1.2.3.6.4.2-.1.4-.1.5-.2.2-.1.3-.1.5-.2.2-.4.3-.4 1-.2.9.1 1.8 0 2.7 0 .5 0 .9-.1 1.2-.2 3.2-.2 6.3-.3 9.5-.5.3 0 .6 0 1-.1.8 0 1.7-.1 2.6-.1-.3.2-.8.2-1.2.2-.4.1-.9.2-1.3.3zM22.2 61.9c.6 0 1.3.1 1.9.1.4 0 .7.1.9.2h.9c2.6 0 5.1 0 7.7-.1 1.7-.1 3.3-.1 5-.2 1.3-.1 2.7-.2 4-.3.3-.1.7-.1 1-.2h.3c-1.4.1-2.8.1-4.3.1-1.8.1-3.6.1-5.4.2-.9.1-1.8.1-2.6-.1-1.1.1-2.2.2-3.2.1-1.8-.1-3.7-.2-5.4-.4-.2 0-.4 0-.5-.1-.7.1-1.5.1-2.3.1-1.5.1-2.4 0-2.8-.1-.3-.2.7-.4 2.1-.6.3 0 .7-.1 1-.1 0-.1-.1-.1-.1-.2 0-.2-.3-.3-.7-.4h-.2c-.7 0-1.9-.1-1.9-.1.2-.3-1.7-.4-4.6-.4H9.1c-5.5 0-5.6-.1-.6-.8 1-.2 2.4-.3 3.9-.4.1 0 .2-.1.3-.1h.5c.6 0 1.2-.1 1.8-.1-.9-.1-1.4-.4-2.1-.6-.2 0-.3-.1-.3-.2s.1-.2.1-.4c.1-.1-.5-.3.2-.4.5.2 1 .4 1.4.6h.7c1.9.1 1.9.1 1.7-.6-.1-.3-.3-.6-.5-.9-.6-.1-1.2-.2-1.3-.4-.2-.4-1-.6-1.8-.7-.8 0-1.5 0-2-.3-2.1-.3-3.8-.7-3.5-1.7.1 0 .1-.1.2-.1.2-.4.5-.8.7-1.2-.8-.5.8-.7 1-1.1v-.3-.5c0-.2-.1-.4.1-.4.8-.3-.1-.3-.3-.5h-.4v-.2c.1 0 .3 0 .5-.1h.1-.1c1.7-.4 2.1-.4 2.9.1.1.1.1.2.2.3h-.1.1c.3.1.6.1 1 .2.3-.1.5-.2.3-.3-.2-.2-.8-.4-.8-.7 0-.1.4-.3.6-.2.9.1 1.9.2 2.8.4 1.7-.1 3.1-.2 4.6-.6-.8-.3-1.5-.6-2.2-.9-1.3.1-2.4 0-3-.4-1.1 0-1.5-.3-1.8-.5-.1-.1 0-.2.3-.3-.3-.1-.7-.1-1.1-.1-.7 0-1.5.1-2.2.1-1 .1-1.8 0-2.4-.2-.2-.1-.5-.1-.8-.2.6-.3 1.6-.1 2.3-.3.1 0 .4 0 .6.1 1.2.3 2.4.2 3.6-.1.2-.1.3-.2.5-.2.8-.1 1.3-.2 1.1-.6-.1-.1.3-.2.6-.2.6 0 1.1-.1 1.7-.1.3-.1.6-.1.9-.1.4.1.7 0 1-.1.7-.1 2.3.1 1.6-.6-.9-.4-.5-.9-.3-1.4-1 .3-2.2.4-2 1 .1.2-.4.4-1.2.4-.9-.2.2-1-1.6-1-1 .1-2 .1-3 .2-.2.1-.3.3-.3.4 0 .2-.2.4-.7.5h-.9c-.3 0-.7-.1-1-.1-1.6 0-1.7 0-1.3-.5 0-.1.1-.1.2-.2v-.2c.5 0 .9-.1 1-.3.1-.1.3-.2.5-.3.3-.2.7-.2 1.1-.1 1.5.3 3 .2 4.7 0 .5-.1 1-.1 1.3-.3s.8-.2 1.3-.3c.2-.1.4-.2.6-.2v.1h.1-.1c0-.2.4-.3.9-.4-.1 0-.2-.1-.4-.1-1.8 0-3.5-.1-5.3 0-.5 0-1 0-1.2-.1-.2 0-.3-.1-.5-.1.3-.1.7-.3 1-.4-.6-.1-.6-.1.3-.5-.7-.2-1.5-.1-2.3-.2-.9-.1-1.3-.2-1.2-.6h-.5c.1-.2.3-.4.4-.6h.2c0-.1 0-.3.5-.4.3 0 .5 0 .7.1.1 0 .2.1.3.1 1 .1 1.9.1 2.9-.2v-.1c-.4-.3-.4-.4.2-.5.5-.1 1.4-.1 1.3-.5.6-.3 1.6-.3 2.5-.5-.8 0-1.4.2-2 .1-.3-.1-.5-.1-.8-.2-.5 0-.6-.1-.7-.3v-.2c-.2 0-.4-.1-.7-.1-.7 0-.6-.2-.4-.4h.5c.2-.2.6-.2 1-.2 1-.3 2.3-.4 3.1-.8-.2-.1-.7-.2-.6-.4-.5 0-1.1 0-1.4-.1-1-.3.7-.2.6-.4-.1-.1.1-.2 0-.4 0-.1 0-.2.1-.4.1-.1.3-.2.6-.2.5 0 .9.1 1.4.1.4 0 .8 0 1.1-.2h.1-.1c-.7.1-.6-.1-.7-.3.4-.1.8-.2 1.1-.2 1.1.1 2.2 0 3.4-.1h.5c.5-.3 1.3-.2 2-.3l.1-.1h.9c.2-.1.3-.1.5-.2 1.2-.1 2.3-.1 3.5-.2.7-.1 1.4-.1 2.1-.2.6-.1 1.2-.1 1.9-.2 2-.2 4-.2 6-.5 1.2-.1 2.3.1 3.5 0 .5-.2 1-.3 1.5-.1 1.9-.4 3.9-.4 6-.5 1.1-.1 2.1-.1 3.2-.2.5 0 1-.1 1.3-.2 1.1-.4 2.4-.1 3.5-.4.5 0 1-.1 1.5-.1 1.6-.2 3.3-.3 4.9-.3h.1c.5-.1 1.1 0 1.5-.2 3.8-.2 7.5-.6 11.3-.8.4 0 .8-.1 1.2-.1.5 0 1-.1 1.5-.1 1.9-.1 3.7-.1 5.6 0 .9 0 1.8 0 2.7-.1.7-.1 1.4-.2 2.2-.1.8.1 1.6 0 2.5-.1 1.7-.1 3.5-.2 5.2-.2s3.5-.1 5.2-.1c2.1-.1 4.3-.2 6.4-.2 1.4 0 2.8.1 4.2 0 2-.1 4-.2 5.9-.1l6 .1c1.5 0 2.9.1 4.4 0 .1 0 .3 0 .4.1.1 0 .2.1.2.1s-.2.1-.3.1c-1.8.2-3.6.1-5.3-.1-1.1.1-2.1.1-3.1.2-.5 0-1 0-1.3-.1-2.7.2-5.4.2-8.1.1-.7 0-1.3 0-1.9.1-.7.1-1.4.1-2.2.1-1.8 0-3.7-.2-5.6.2-.4.1-1 0-1.5 0h-2c-4.5.2-8.9.5-13.4.5-2.3 0-4.6.2-7 .3-.5 0-1 .1-1.5.1-.4 0-.4.2 0 .3.1 0 .2.1.4.1H84c.8 0 1.7-.1 2.5-.1 2.8-.1 5.5-.3 8.3-.3 2 0 4 0 6.1-.1 2.2-.2 4.4-.1 6.5-.1.8 0 1.8-.1 2.6.1 2.1-.2 4.2 0 6.3-.1.2 0 .4.1.6.1h.5c.7 0 1.3-.1 2-.1.1 0 .2 0 .2.1.6 0 1.2-.1 1.8 0h.5c.6.2 1.4-.1 2 .1h.4c.8.2 1.8-.1 2.5 0h.4c6.2-.1 12.4-.4 18.5-.2.9.1 1.9.1 2.9 0 6.3-.3 12.7-.6 19-1 4.6-.3 9.1-.6 13.7-.9.5 0 1-.1 1.4-.2h.4c2.6-.3 5.2-.5 7.8-.5.1 0 .1.1.2.1 2.3-.3 4.6-.4 6.9-.6-.1-.1 0-.1.2-.2 1.2-.1 2.5-.1 3.7-.3 1.7-.2 3.4-.3 5.2-.4h.4c.6-.3 1.3-.2 2-.3 1.6-.3 3.2-.4 4.9-.5.2-.1.4-.1.6-.2 1.5-.2 2.9-.3 4.4-.5 2.3-.2 4.5-.5 6.8-.7 2.5-.2 5-.6 7.6-.6.2 0 .4-.1.6-.1 1.5-.1 3-.2 4.4-.3 2.4-.3 4.9-.4 7.3-.7.5-.1 1.2-.1 1.6.1.3 0 .7 0 1-.1.3 0 .7 0 1-.1.2-.1.4-.1.6-.2 2.4-.2 4.8-.2 7.1-.6h.7c2 .2 4.1-.1 6.1-.2.6 0 1.3-.2 1.9-.3 1.4-.1 2.8-.3 4.2-.4 2.1-.1 4.3-.3 6.4-.4 1.3-.1 2.6-.1 3.8-.3.8-.1 1.5-.2 2.3-.3 1.5-.1 3-.1 4.4-.3 2.4-.3 4.8-.4 7.1-.5.5-.2 1-.2 1.6-.3.7-.1 1.5-.1 2.2-.2 1.6-.2 3.2-.3 4.9-.3.9 0 1.8-.1 2.7-.1 1.3-.5 2.8-.4 4.2-.4h1c2.5-.1 4.9-.3 7.4-.4.2-.1.4-.2.6-.2l8.4-.6c1.3-.1 2.6-.1 3.9-.3 1.8-.2 3.6-.4 5.4-.5 2.4-.2 4.8-.3 7.2-.4.7-.1 1.5-.1 2.2-.2 1.9-.3 3.8-.3 5.7-.4.9-.1 1.8-.1 2.7-.2.4-.1.8-.1 1.2-.1 1.9 0 3.8-.3 5.7-.3 3.8-.1 7.5-.6 11.3-.8.2 0 .5 0 .7-.1.9-.2 1.9-.2 2.9-.3 2.3-.2 4.6-.3 6.9-.4 1.4-.1 2.9-.1 4.3-.4.3-.1.6 0 .9 0 .4.1.8.1 1.1.1.5-.2 1-.2 1.6-.3 3.3-.2 6.6-.4 9.9-.7 2.8-.3 5.6-.3 8.4-.5.3 0 .6 0 .9-.1.2-.1.4-.1.6 0 1-.1 1.9-.1 2.9-.1.4-.2.9-.2 1.3-.2.9 0 1.8-.1 2.7-.1l4.5-.2h.6-.1c2.2-.1 4.3-.2 6.5-.4 2-.1 4.1-.2 6.1-.3.8 0 1.6-.1 2.3-.3.7.3 1.7 0 3 .2-3.2.2-5.9.5-8.6.6-.9 0-1.8.1-2.7.1-.6.1-1.2.2-1.9.3-1.2.1-2.4.1-3.6.2-.8.1-1.6.1-2.4.2-.4.2-.9.2-1.4.2-2.7.1-5.4.3-8.1.4h-.5c-.5 0-1 .1-1.5.1h-.5c-2.7.4-5.6.4-8.3.7-3.2.3-6.4.5-9.6.6-.4 0-.8 0-1.2.1-3.5.5-7.1.5-10.6.9-3 .3-6.1.4-9.1.7s-6.1.4-9.1.7c-2.5.2-5.1.3-7.7.4-.6.3-1.4.2-2.1.3-4.2.2-8.5.4-12.7.7-4.3.3-8.6.4-12.9.8-1.9.2-3.8.2-5.7.3l-2.1.3c-2.4.2-4.9.4-7.3.6-.2.1-.4.2-.7.2-.3 0-.5.1-.8.1-3.5.4-7.2.5-10.7.9-.9.1-1.9.2-2.7-.1-.7.3-1.8.4-2.7.4-2.2.2-4.5.4-6.7.6.1 0 .3.1.4.1 1.7-.1 3.5-.2 5.2-.3 1.7-.1 3.4-.5 5.1-.4.2 0 .5-.1.7-.1 1-.1 1.9-.1 2.9-.2.5-.2 1.2-.2 1.9-.3 2.2-.1 4.3-.2 6.5-.4 3.4-.3 6.7-.5 10.1-.7-1.6.4-3.2.5-4.9.6-3 .2-6.1.3-9 .7-1.1.1-2.2.1-3.4.2 0 .1 0 .1-.1.2-3.4.7-7.1.6-10.7 1-.7-.1-1.6 0-2.4 0-.3 0-.7.1-1 .1-2.9.2-5.8.5-8.8.7-.4 0-.9.1-1.3.1-.9.1-1.9.2-2.8.2-2.8.3-5.6.6-8.4.7-.8 0-1.7.1-2.5.2-2.1.3-4.2.4-6.3.5-.3.1-.6.2-1.1.2-.8 0-1.6.1-2.4.1-.5 0-1 .1-1.5.1-.3.2-.6.2-1 .1h-.5c-.3.2-.8.2-1.3.2-1.1.1-2.1.1-3.2.2h-.2c-.1 0-.2.1-.3.1-1.5.2-2.9.4-4.5.3h-.5l-1.5.3c-3 .1-5.8.8-8.9.8-1.1.1-2.3.1-3.4.2-1.2.3-2.7.4-4 .5-2.6.2-5.2.5-7.7.8-1.5.2-3.1.3-4.6.4-1.9.2-3.7.4-5.6.5h-.2c-2 .3-4.1.4-6.1.5-.5.2-1.2.2-1.8.3-1.5.1-3 .1-4.4.3-1.6.2-3.2.3-4.9.4-.6 0-1.2 0-1.7.1-1.7.3-3.4.3-5.1.4-.2-.1-.4-.1-.6-.1.2 0 .4.1.6.1-1.2.1-2.3.1-3.5.2-1.1.1-2.2.1-3.2.2-2 .2-4.1.4-6.1.5-2.3.1-4.7.3-6.9.3-2.4 0-4.7.3-7.1.2-.5 0-1 .1-1.5.1h-1c-2.2.1-4.3.2-6.5.3 1 .2 2.3.1 3 .5h.7c.4 0 .7.1.9.2 1.9-.1 3.9-.2 5.8-.2 2.2 0 4.4-.1 6.6-.2 2.2-.1 4.5-.2 6.7-.4.7 0 1.4-.1 2-.2 1-.2 2.1-.2 3.2-.3 2.2-.1 4.5-.2 6.7-.4.7 0 1.4 0 2-.1 1.2-.2 2.4-.3 3.7-.3 3.5-.1 6.9-.6 10.3-.8.2 0 .3 0 .5-.1 1.3-.3 2.6-.3 3.9-.3.9-.1 1.8-.1 2.7-.2 1.7-.2 3.5-.4 5.3-.5.7 0 1.3-.1 2-.1 1.2-.1 2.4-.1 3.4-.3 3.4-.5 6.8-.7 10.2-1 2.2-.2 4.4-.5 6.6-.7 1.9-.2 3.7-.5 5.6-.5.3 0 .7 0 1-.1.1 0 .2-.1.4-.1 1.9-.2 3.7-.4 5.6-.5 2.5-.1 4.9-.4 7.3-.7 1.9-.2 3.7-.3 5.6-.4 4.8-.4 6.1-.5 10.5-1.3.2 0 .3 0 .5-.1 2.3-.1 4.6-.5 6.9-.6.7 0 1.4 0 2-.1 2.3-.3 4.6-.4 6.9-.5.3-.2.8-.2 1.3-.2 1.1-.1 2.1-.1 3.2-.2 1.8-.3 3.7-.4 5.6-.5.6 0 1.2-.1 1.7-.1 1.7-.2 3.4-.3 5.1-.4h.9s-.1-.1 0-.1c.8-.4 1.6-.4 2.5-.2 1 0 2-.1 3-.1 2.3-.1 4.6-.3 6.8-.5 2.9-.2 5.7-.3 8.6-.5h.5c.3-.1.8-.1 1.1-.2 6.6-.4 13.1-.7 19.7-1.1 3.9-.2 7.8-.5 11.7-.8 1-.3 1.8-.1 2.5 0 2.7-.1 5.3-.2 8-.5h.9c1-.1 1.9-.2 2.9-.2.8 0 1.6 0 2.4-.2 1.1-.2 2.3-.3 3.4-.2.7 0 1.3.1 1.9-.1.8-.2 1.4 0 2.2-.1.8-.3 1.8-.3 2.8-.4 2.3-.1 4.6-.1 6.9-.5.5-.1 1-.1 1.5-.1 2.6-.1 5.1-.3 7.7-.4.5-.2 1.2-.2 1.9-.3 2.5-.1 5-.3 7.5-.4.6 0 1.2 0 1.7-.1 1.1-.2 2.3-.2 3.4-.3 1-.1 2-.1 3-.2.7-.3 1.5-.2 2.3-.3 5.4-.3 10.7-.6 16.1-.8 2.2.3 4.3 0 6.5-.3h.5c.6.1 1.1.2 1.8.1 1.4-.2 2.4 0 3.2.4l1-.1c.3-.1.7-.1 1.1-.1-.4 0-.8.1-1.1 0-.2-.2.1-.3.5-.4 1.6-.3 3.3.2 4.2 0 1.5-.4 2.7-.5 4.2-.3h.7c.1 0 .2 0 .3-.1h1c.6.1 1.2 0 1.8 0 .1 0 .2 0 .3-.1.3-.1.7-.1 1.1-.1h.4v-.1c.7 0 1.5-.2 2 .1 1.4-.1 2.8-.1 4.1-.2 1.5-.1 2.9-.1 4.3 0 .7 0 1.3 0 2-.1.6-.1 1.3 0 2.2-.3-.8 0-1.2.1-1.6.1s-.8.1-1.2-.1c5.4-.5 10.6-.4 15.9-.4-3.1.2-6.2.6-9.3.7-.7 0-1.5 0-2.1.3.3 0 .6.1.9.1 1.7-.2 3.4-.1 5.1-.2.8 0 1.6-.1 2.4-.1.4 0 .8 0 1.1.1h.5c1.4-.1 2.8 0 4.1-.1 2.6-.1 5.2-.1 7.8-.2-.1.2-.2.3-.7.4-1.3.1-2.6.2-3.9.2-1.7 0-3.3-.1-5 .1-1.2.1-2.5 0-3.9.1-.2 0-.2-.1 0-.2h-.1c-.1 0-.1.1-.2.1-1.9.2-3.8.6-5.7.2-1.5-.2-3 .2-4.5.3-2.7.1-5.3 0-8 .1-.3 0-.6.1-.9.1-.7 0-1.4.1-2.1-.1-1.1 0-2.3.2-3.4.1-1.2 0-2.4 0-3.6.1-1.5.2-2.9.1-4.4.2-8.8.5-17.6.9-26.4 1.4-.4.4-1.3.6-2.5.7-2.8.1-5.6.3-8.5.4 0 0-.1 0-.2.1h-.3c-.1 0-.2.1-.3.1-.9.1-1.9.1-2.8.1-.2 0-.3 0-.5-.1h-.2c.1.1 0 .1-.1.2-.5 0-1 .1-1.5.1-2.1.2-4.1.6-6.3.5-.3 0-.6-.1-.7-.1h-.4c-.4.2-1 .2-1.6.2l-5.7.3s-.1 0-.1.1c-.2.1-.4.1-.7.2-4.5.5-9 .9-13.5 1.1.3 0 .5.1.8.1 1.8-.1 3.7-.2 5.5-.3 2.6-.3 5.3-.4 7.9-.6 1.3-.1 2.6-.3 3.9-.3 3.3-.2 6.7-.4 10-.6 0-.1.1-.1.1-.2 1.3-.1 2.6-.2 3.9-.2 3.8-.4 7.6-.5 11.3-.6h-.1c.1 0 .1-.1.2-.1 8.3-.4 16.6-1 25-1.2 1.5-.2 2.9-.1 4.4-.2 1.5-.1 3-.1 4.5-.2 2.2-.1 4.3-.3 6.4-.3 2.2 0 4.3-.1 6.4-.2 2.7-.2 5.4-.1 8.1-.2 2 0 3.9-.1 5.9-.2h.5c1.5-.1 3 0 4.6-.1s3.3-.3 4.9-.2c.2 0 .4.1.6.1.8 0 1.7-.1 2.4-.1 1.5.2 3 .1 4.5.1h3.9c.2 0 .4.1.6.1h2.5c2.1 0 4.2.1 6.4 0 .3 0 .6.1.9.1 3.7-.4 7.3-.3 10.9 0 .3.1.5.1.7.2 2.5-.1 5-.1 7.3.2.6.1 1.3 0 1.9.1 1.1.1 2.3 0 3.3.2h.1l.1-.1c.6 0 1.2-.1 1.7 0 .9.2 2 .1 3 .2 1.4-.1 2.6.2 4 .1.4.3 1.3.3 2 .5h.5c.6-.1 1.1-.1 1.5.1h.5c.1-.1.2-.2.6-.2 2.5 0 4.9.4 7.4.3.2 0 .3.1.3.2h.7l.1.1c.1 0 .1-.1.1-.2.7-.1 1.3.1 1.8.2.7.1 1.3.3 2 .5.1.3-.4.3-1 .2h-.5c-.4-.1-1.1 0-1.5-.1-.2-.1-.6-.1-1-.1s-.8 0-1-.1c-2.6-.1-5.2-.3-7.9-.2-.4 0-.8 0-1.1-.1-.5 0-1.3 0-1.6.2-.3.3-.7.3-1.3.3-1.3-.1-2.6-.2-4-.1-.4-.1-.8-.2-.8-.3-.3 0-.5-.1-.8-.1h-.4c-.4-.1-1.1.1-1.6-.1-.3 0-.7 0-1 .1-1.2.2-2.3.3-3.1-.1 0 0 .1-.1.2-.1h-.4c-1.2.5-2.5.7-4 .3-.3-.1-.8 0-1.1-.1-.4 0-.8-.1-1.2-.1-1.5-.1-3.1 0-4.6 0-2 0-4-.1-6.1 0-.2 0-.4-.1-.6-.1-.6 0-1.2.1-1.7 0-3.7-.1-7.5.1-11.2.1-.5.2-1 .1-1.4.1-.5.2-1 .2-1.6.1h-.5c-3.2.2-6.4 0-9.7.2h-.5c-1.2 0-2.5.1-3.7.1-.4 0-.8.1-1.1.2-.4 0-1 .1-1.2 0-.6-.2-1.3-.2-2-.2-1.6.1-3.1 0-4.7.1-3.4.1-6.7.1-10.1.3-.7 0-1.5.1-2.1 0-3.1.1-6.1.3-9.2.4-3 .1-6.1.2-9.1.4-5.3.3-10.6.5-15.8.8-3.4.2-6.8.4-10.1.5-1.5.1-3 .4-4.6.3-.3 0-.6.1-.9.2v.4c.8 0 1.6-.1 2.4-.1 1-.1 2.1-.2 3.1-.2.5 0 .9-.1 1.4-.1h1c1-.1 2-.1 3-.2 1.7-.1 3.3-.2 5-.3 1.3-.2 2.6-.2 3.9-.2 5.6-.3 11.3-.6 16.9-.9.5 0 1.1-.1 1.5 0 .9.2 1.9.1 2.8 0 .7 0 .4.2.3.3 1.5-.1 2.9-.1 4.4-.2.2 0 .4 0 .5-.1 1.2-.5 1.2-.5 2.6-.3.3 0 .6.1.9.1 1.9-.3 3.9-.3 5.9-.4h.6c0 .6 1.2.2 1.7.2.7 0 1.2-.1 1.8.1.4.1 1 0 1.4 0 1 0 2-.1 3-.2.9-.1 1.8 0 2.6.1.4 0 .4.2.5.3 1.5 0 3-.2 4.5-.1 1 0 2-.1 3-.1l.1.1c.6-.1 1.3-.2 1.9-.2 1.9 0 3.8-.1 5.6-.1 3.1.1 6.4 0 9.5.2 1.7.1 3.6 0 5.3.1s3.4-.1 5.1.1c1.1-.1 2 .1 3 0 .4.2 1 .1 1.6.1s1.3-.1 1.6 0c.6.2 1.5.2 2.3.2.3 0 .6 0 .9-.1 2.2.2 4.7-.4 6.7.2.4.2 1 .1 1.5.1 1.2-.1 2.1 0 2.5.4h1.4c.9 0 .9 0 .7.4h2.6c1 0 2 0 2.8.1.7-.1 1.5-.1 2.1 0h1.4c.6 0 1.1-.1 1.5.1 1.2-.1 2.2 0 3.3.1l4.2.3c.6-.1 1 .1 1.5.1.4 0 .8 0 1 .1 1.3-.1 2.6.1 4 0 0 .5-.9.6-1.9.6h-.3c-.1.5-.3.5-2 .2-.4.1-.9.2-1.4.3.1 0 .2.1.3.1.5.1.8.2 1.1.3.7 0 1.3.1 1.9.2.3.1.4.2.1.3h-.5c-.5-.2-1.7.2-2-.2-.2 0-.4 0-.5-.1-.8-.1-1.6 0-2.4 0-3-.1-6.2 0-9.1-.3-.1 0-.2.1-.3.1-.9.1-1.7 0-2.6 0h-.2c-1.3.3-2.8.3-4.2.3-.2 0-.5 0-.7-.1-.3-.1-.3-.4-.9-.1h-1.3c-.3 0-.6 0-.9.1 0 0-.1 0-.2.1h-.3c-.1 0-.3-.1-.4-.1-1.9.1-3.8-.1-5.8.1-.6 0-1.3.1-1.8-.1-1 .3-1 .3-.4.8 1.9.1 4 0 6 .1h1.4c2.2 0 4.3.1 6.5.1.4.1 1 .1 1.5.1 2.1-.1 4-.1 6 0 .6 0 1.4-.2 1.6 0 .5.4 1.5.4 2.3.3 1.9-.1 3.8 0 5.6-.1 0 .3-.4.4-1.1.4-1.4-.1-2.9 0-4.3.1-.4 0-.8.1-1 .2 1.3.1 2.6.1 3.2.7.2.2.8.2 1.4.2.9-.2 1.8-.2 2.6-.1s1.6.1 2.4 0c0 0 .1 0 .1.1.1.1.4.1.4.2s-.3.1-.6.1c-.5 0-1 .1-1.5.1s-1 0-1.5.1c-.3-.1-.7 0-1-.1h-.5c-.3 0-.5 0-.6-.1-.5.2-1.1.5-2 .4-1.5-.1-3 .1-4.5.2.1.2.4.2.7.2h1.5c.3 0 .7 0 .6.2 0 .1-.3.2-.7.2-1.9.1-3.8.1-5.6.2-.3 0-.6-.1-.9-.1-2.2.2-4.4 0-6.6.1h-2.2c-.8 0-1.3.2-1.7.4-.1.1-.6.1-1 .1-.3 0-.6.1-.8.2 1.3-.2 2.4 0 3.7 0 4.2-.2 8.4-.1 12.5 0h2.7c1.2.2 2.2.5 3.5.6.3 0 .7 0 1-.1.7 0 1.3.1 2 .1h.5c.7 0 1.3-.1 2-.1.3.1.7 0 1 .1.6.2 1.3.2 2 .3h1c.3.1 1.1 0 1 .3-.1.2-.6.2-1 .1h-.5c-2.3.4-4.6.3-6.8.2-.1-.1-.2-.2-.1-.2-.7 0-1.5.1-2.2.1-.5 0-1 0-1.4-.1-3.1 0-6.2-.1-9.4.1-.7 0-1.5.2-2.1 0h-1c-.5 0-1 .1-1.5.1-.4 0-.8.1-1 .2h.4c.3 0 .7-.1 1-.1 1.6 0 3.3-.1 4.6.3.5 0 1 .1 1.5.1 2-.2 4-.2 5.9-.1 1 .1 1.9 0 2.9 0 1.8 0 3.6 0 5.4-.1.6 0 1.3 0 1.9.2-1.7.2-3.4.3-5.1.5.1.1.7.1.4.4-.7 0-1.5.1-2.2.1-1.3.1-2.5.3-3.7.5.5 0 1.2-.1 1.4 0 .7.3 1.9.1 2.6.4 1.1-.1 2.1 0 3 .1.7.1 1.5.2 2.3.2.8-.1 1.5 0 2.2 0 .2 0 .4-.1.6-.1.8 0 1.5 0 1.4.4-.8 0-1.6.1-2.4.1-.4 0-.8.1-1 .3.3.1.7.1 1 .1 2.3-.1 2.3-.1 3.5.2-1.9.1-3.7.2-5.6.3-.3 0-.6-.1-.9-.1-1.1.1-2.3.1-3.4.2-.3-.1-.8 0-1.1-.1h-1c-.8.1-1.6.1-2.5.2-.2.1-.3.3-.5.4-.5 0-1 0-1.5.1-.2 0-.3 0-.5.1-.1 0-.2.1-.4.1h.9c-.7.3-1.6.2-2.5.3-.3 0-.7 0-1 .1-.2.1-.3.1-.5 0-.8 0-1.6.1-2.4.1-.1 0-.2 0-.2-.1-.8 0-1.6.1-2.3.1h-4c-.6 0-1.2.1-1.7.1-3.6 0-7.2 0-10.8-.1-3.4 0-6.9 0-10.4.1-.9 0-1.8.1-2.7.1-.4 0-.8 0-1.2.2-.1 0-.2.1-.2.2 0 0 .2.1.3.1.6 0 1.1 0 1.7-.1.4 0 .8 0 1.1.1h.5c.6 0 1.3-.1 1.7 0 1.2.3 2.5.2 3.8.1.7 0 1.5-.2 2.1.1h1c1.1.1 2.1.2 3.3 0 .6-.1 1.3-.1 1.8.1.4.2 1.1.2 1.8.2 1 0 2 0 2.9.1.5 0 1 .1 1.3.3-2.1.2-4.1.3-6.1.1-.6-.1-1.3-.1-1.8.2 2.7.1 5.2.4 8 .4.3 0 .6.1.9.1 1.5-.2 2.9 0 4.4 0 .4 0 .8-.1 1.2 0 .5 0 1 0 1.4-.1.3 0 .6 0 .9-.1 1.2-.4 2.5-.4 3.7-.2.5.1.9 0 1.4-.1 1.1-.1 2.3-.1 3.4-.2.8 0 1.8-.2 2.5.1.7.1 1 .2 1.1.5 1.3-.1 2.6-.1 4-.2h.5c.6.2 1.4-.1 2 .1.6.1 1.3.2 2 .1h.5c-.4.6-1.7.4-2.7.5-.7 0-1.3-.1-2 0h-1c.5 0 .9.1 1.2.2-3.3.2-6.6.4-9.9.5-.9 0-1.8.1-2.7.1h-.2v-.1c.5-.1 1-.2 1.6-.3l5.1-.3h-3.6c-.3 0-.7-.1-1-.1h-.1c-.4.2-1 .2-1.6.3-1.9.1-3.9.2-5.8.3-.3 0-.5.1-.8.1h-.7c.5.2 1.5.2 2 .4.2.1.2.1 0 .2-1.2.1-2.3.1-3.5.2h-.5c-1.2 0-2.3-.2-3.5.2h-.5c-1.3-.2-2.7.1-4 0l-2 .1c-.3-.1-.7-.1-1 .1h-.5c-.3.1-.7.1-1 .1h-.2c-.1 0-.2 0-.3.1-1.6.1-3.1 0-4.7.2-.4.1-.9-.1-1.3-.1-2.3.1-4.6.3-6.9.2h-.5l-6 .3c-.8.1-1.6.1-2.4.2-.9.1-1.7.2-2.6.2-1.3.1-2.6.1-4 .2-1 .1-2 .1-3 .2h-.5c-.4 0-.8 0-1-.1h-.5c-.3 0-.7 0-1 .1-1 0-2 .2-2.8-.1-1.1-.3-1.6.5-2.7.3h-2c-1.3.3-2.4.1-3.6.1-.8 0-1.6.1-2.3.1-.6-.2-1.3-.1-1.9 0-3.4.2-6.7.3-10.1.5-.9 0-1.8.1-2.7 0-.8 0-1.6.2-2.4.1-2.7.3-5.4.3-8.2.4-5.2.3-10.4.5-15.6.8-.6 0-1.2 0-1.6.2.1.1.2.1.2.2.2.3.1.4-.4.4-.9.1-1.8.1-2.7.1-.1 0-.2-.1-.3-.1 0 0 .2-.1.3-.1.4-.1.4-.2.4-.3-1.5-.2-3-.1-4.5.2.3.2.8.3 1.5.3-.3.1-.5.2-.8.2-2 .1-4.1.2-6.1.3-.4 0-.6 0-.8-.1-.3-.2-.8-.2-1.1 0-.4.2-.8.2-1.2.1-.3-.1-.8-.1-1.2-.1h-.1v.2c-.2.2-.6.2-1 .2-.8 0-1.6.1-2.4.1-.2.1-.3.1-.5.2h.3c2.1-.2 4.2-.3 6.3-.4 4.2-.2 8.4-.5 12.5-.6 3.7-.2 7.5-.4 11.2-.6l11.1-.6h.1c2.4-.2 4.8-.3 7.2-.4 2.7-.1 5.4-.4 7.9 0 .1.1.1.2.1.2h.1c1.1.1 2.3.1 3.5 0s2.4-.1 3.6-.2c.3 0 .6 0 .8.1h.1c.1-.1.3-.2.8-.3 4.2-.3 8.5-.5 12.7-.7 1.5.1 3-.1 4.5 0h1c2.8-.5 5.6-.4 8.4-.2.3-.1.6-.1.9-.2 1.7-.2 3.4-.4 4.9-.1.4.2 1 .1 1.6.1 2.1-.1 4.3-.2 6.4-.3 0 .2-.4.4-1 .4-.3 0-.6 0-.9.1-1.6-.1-3.4.2-5 .1l-1 .1c-.9.3-2.1 0-3 .3h-.5c-.7.1-1.5.2-2.2.3.4 0 .8.1 1.3.1h1c1.1.2 2.4-.2 3.5 0 .6.1 1.3.1 2 .1-.2.2-.4.2-.6.2-2.6.1-5.3.3-7.9.4-1.5.1-2.9.1-4.4.1-.3 0-.7 0-1 .1-3.4.2-6.7.4-10.1.5-.6 0-1.3.1-1.9-.1-3 .2-6.1.1-9.1.6h-.7c-1.4-.1-2.8 0-4.2.1-5.6.3-11.1.5-16.7.8s-11.2.6-16.9.8c-.7 0-1.3 0-1.8-.2-.6.1-1.2.3-1.8.3-3 .1-6 .4-9 .4-.3.1-.7.2-1.1.2h-1.5c-1.8.2-3.6.3-5.4.4-5.6.3-11.3.6-16.9.9-1.5.1-2.9.3-4.4.3 0 0-.1 0-.1-.1h.1c-.4.1-.8.2-1.2.2-4.6.3-9.2.5-13.7.8-.1 0-.2.1-.3.1 5.2-.2 10.4-.4 15.8-.6 2.4-.1 4.9-.3 6.6-.2.7 0 1.4-.1 2-.1 1.1-.1 2.2-.1 3.2-.1.9 0 1.9 0 2.2.1.4.1-.8.2-1.8.3-3.5.2-7.1.5-10.1.4-1.4.1-2.8.1-4.2.2H401.2h1c-.7 0-1.5.1-2.2.1-1.4.1-2.8.1-4.3.2-1.4.1-2.8.2-4.2.2 0 0-.1-.1-.2-.1-.3 0-.7 0-1 .1-1.8.1-3.8.2-5.5.2-1.4.1-2.8.1-4.2.2-3.1-.1-6.8.2-10.3.3-.7.1-1.5.1-2.2.2-2.2.1-4.4.3-6.7.3-1.6.1-3.2.1-4.8.2-2.4 0-4.8.1-7.4.2h-1c-.3 0-.7.1-1 .1 1 0 2.1-.1 3.1-.1s1.9-.1 2.8-.1c2.3 0 4.7-.1 7.1-.2 2.7-.1 6.6-.2 6.9.1.4.3-3.2.5-5.8.7 1.4-.1 2.7-.1 4.1-.1 3-.3 6-.4 8.9-.4 4-.1 8.1-.3 12.1-.6 1.6-.1 3.1-.3 4.7-.2.2 0 .4.1.5.1h.5c2.2-.1 4.3-.2 6.5-.4.7 0 1.4-.1 2.2-.1.5 0 1-.1 1.3-.2 3.5-.4 7.1-.3 10.5-.8.4-.1.9-.1 1.2.1 2.6-.1 5.1-.4 7.7-.3v.4h-1c-1.6.1-3.3.2-4.9.3-.6 0-1.2 0-1.6.2h-.4c-.4-.2-1.1.1-1.5-.1-.3.1-.8.1-1 .2-.3 0-.6 0-.9.1-.5-.1-1-.1-1.5.1-2.8.2-5.6.3-8.4.5-.2.2-.6.2-1 .2-.8 0-1.7.1-2.5.1-2.2.1-4.3.2-6.5.3h-.8c2 0 4.3-.1 6.6-.2 4.2-.2 8.5-.4 12.5-.5 5.8-.4 11.3-.5 16.9-.7 8.6-.2 17.4-.6 26.3-1 2.1.2 5.7.1 9.3-.1 7.2-.4 14.3-.6 21.4-.9 2.9-.1 5.6-.2 8-.1 1.2 0 2.3.1 2.1.2-.3.2-1.7.3-3.2.4-14.7.7-29.4 1.6-44.1 2.2-6.7.3-13.5.6-20.3 1.2-3 .2-6.4.4-9.6.6-2.5.1-5 .3-7.6.4-2.2.1-4.3.3-5.7.5 4.1 0 8.5-.2 12.9-.5 7.7-.2 16-.7 22.7-.6 1 .1 1.2.2 1.8.3 1.1 0 2.2.1 3.3.1.8 0 1.7-.1 2.5-.1h.5c1.4-.1 2.9-.1 4.3-.2 5-.3 10-.5 14.9-.8 3.1-.2 5.4-.1 6.8.1 2.2-.1 4.3-.2 6.5-.4.7 0 1.3-.1 2-.1.1.1.2.1.2.2.7 0 1.5.1 2.2.1 3.6-.2 7.1-.4 10.7-.6 3.6.2 9.3-.5 13.3-.4-2.5.4-5.7.6-8.8.8-1.6-.1-3.6 0-5.8.1-4.2.2-8.4.4-12.5.7-.9.1-1.9.2-2.6.2-1 .1-2 .2-3 .2h-.9c-2.4.2-5 .3-7.5.4-.2.1-.7.1-1.3.2h-.1c-1.9.3-2.7.4-4.8.4-1 .1-2 .1-3 .2-.9.1-1.8.1-2.7.1 1.1.1 2.5.1 4 .1 2.7 0 2.3.4 5.5.4l6.3-.3c-2.3.4-5.5.7-9.1.9-2.8.2-5.6.3-8.4.4-6.9.4-13.6.5-20.6.9-.8.2-1.8.3-3 .4 5.9 0 12.6-.1 19.2-.3 2.8-.1 6.9-.4 7.1.1-5.7.8-12.8 1.5-20.5 1.8-19.3.9-38.7 1.7-57.7 2.4h4.4c0 .1-.1.2-.3.2h.4l6.3-.3c2.1-.1 4.3-.2 6.3-.3 10.7-.4 21.5-.7 32.5-1.3 2.5-.1 5-.3 6.8-.2 5.9-.3 11.9-.7 17.6-.8 1.9 0 4.1-.2 6.2-.3 1.7-.1 3.3-.1 4.3 0l6.3-.3c3.3.1 7.6-.1 11.6-.2 4.4-.1 8.8-.3 13-.4-.1.3-.3.5-.4.8 2.4-.1 4.9-.3 6.3-.1 2.9 0 5 .2 8.7 0-1.4.6-1.7.6-4.9.7-4.6.2-9.2.4-13.8.7-9.6.5-19.1 1-28.7 1.5 2.5.2 5.8.1 9.5-.1l10.8-.6c8.1-.4 15.2-.4 22.8-.6 1.9-.1 3.8 0 3.5.3s-2.9.4-4.8.6c-.6.1-1.4.1-2.1.1-5.3.3-10.7.6-16 .9-5.8.2-11.5.8-17.3.9-1.2.1-2.4.3-3.6.4-5.3.3-10.7.6-16 .9-3.8.3-7.7.5-11.6.7-18.8 1.1-37.7 2.3-56.4 2.9h-3.8c-4.8.5-10.2.7-15.3.9-7.9.4-15.7.6-23.6 1.2l-4.2.3c2-.1 3.9-.2 5.9-.3 10.4-.3 21.6-1.1 31.4-1.1.3.1.5.1.7.2 3.6-.2 7.2-.4 10.8-.5 6.6-.3 13.3-.6 18.7-.4 1.7 0 3.5-.1 5-.1 1.3 0 3.5-.2 4 0-3 .3-5.9.6-9 .5-1.9.4-4.9.4-7.5.6-2.6.2-.9.2-.2.3.4 0 .7.1 1.1.1 5.5 0 11.4-.2 17.5-.5 10.8-.6 21.4-.9 32-1.3 3.3-.1 6.4-.3 7.7 0 .5.1 2.2.1 3.6 0 2.9-.1 5.7-.3 8.6-.4 1.7.1 4.7-.1 7.4-.1-1.1.1-1.8.2-2.2.3h7.9c8.9-.6 17.2-.5 26-1h3.4c2.1 0 4.4-.2 6.5-.2h1.5c1.3-.2 2.6-.2 3.9-.2h5.3c-1.4.3-3.4.4-5.2.6-1.1-.1-2.8 0-4.4 0-.7 0-1.5.1-2.2.1-8.9.5-17.9.9-26.8 1.4-2.2.1-4.3.2-6 .1-6.4.3-12.8.7-19.2 1-3.3.4-6.6.9-11 .8-9.4.5-18.7 1-28.1 1.5-2.9.2-6 .3-8.4.6-3.8.5-8.1.7-12.4.9-8.3.4-16.6.9-24.9 1.3.8.1 1.6.2 2.3.3l4.2-.2c2.5-.1 5.2-.3 7.4-.3 3.9-.1 7.8-.3 11.7-.5 7.3-.4 14.1-.5 21.2-.8 1.2-.1 2.4 0 3.6 0-8.2.4-16.2.8-24.3 1.2l-6.3.3c-2.6-.1-6.4.4-8.9.3h-.2c-.2 0-.5.1-.9.2-7 .6-14.2.8-21.3 1.2-1.8.1-3.6.2-5.4.2-2.8.3-5 .4-6.8.3-.4 0-.8 0-1.2.1-1.1.1-2.2.1-3.3.2h-.7c-.9.2-2.2.3-4.1.3-2 .1-3.9.1-5.9.2-1.1.1-2.2.1-3.3.2-1 .1-2 .1-3 .1h-.1v.1h.2c1.7-.1 3.6-.2 4.6-.1.8.1-1.7.4-4.5.5-.9.1-1.8.1-2.6.1-1 .1-2.1.2-3.3.3-1.5.1-2.9.2-4.4.3-.3.1-.6.1-.8.2l6.3-.3 10.8-.6c1.9-.1 3.5-.1 4.7 0 3.1-.2 6.4-.4 8.7-.3 5.8-.1 11.6-.2 17.4-.4 5.9-.2 11.5-.3 17.4-.4 3.8-.2 7.8-.4 11.5-.5 5.5-.2 11.1-.4 16.7-.7l8.7-.3c2.1-.1 4.3-.2 6.4-.3 2 .2 6.6-.3 9.1-.1-8.5.5-16.3.9-24.1 1.3-4.3.2-8.7.5-13 .7 1.2.1 3.2.1 5.2 0 5.4-.2 10.9-.4 16.4-.8 1.9-.1 5-.2 4.5.1-.3.2-3 .3-4.6.4-2.1.1-4.3.2-6.4.4-6.4.1-13.2.5-19.8.8-.6 0-1.1.1-1.7.1-14 .8-28.1 1.5-42.1 2.3-2.2.1-4.3.2-5.9.1-5.8.2-11.7.4-17.5.9-1.3.1-2.7.1-4.1.2-6.4.3-12.9.7-19.2 1-14.5.6-29 1.2-43.6 1.9-1.7-.1-3.9 0-6.1.1-6.5.3-13 .7-19.4 1-4.3.3-8.8.4-13.1.7-8.7.6-17.4 1-25.9 1.3.6 0 1.3.1 2.2 0 .8 0 1.6 0 2.4-.1 4.8-.2 9.8-.5 14.6-.7 1.6-.1 3-.1 4.2 0h-.1c4.3-.2 8.6-.5 12.9-.7 1.3-.1 2.6-.1 3.9-.2 4.1 0 9.3-.3 13.4-.3 1.8.1 4.4-.1 6.5-.1 5.3-.4 10.2-.5 15.2-.6 3.1-.1 6.3-.4 9-.3 3.1-.1 6.5-.2 9.4-.4 8.1-.6 15.2-.6 22.6-.8-2.2.4-5.7.4-8.5.7-2.8.1-5.5.3-8.3.4-5.7 0-12.7.9-18.1.7 0 0 0-.1.1-.1-3.8.4-7.8.5-11.7.7h-1.1c-3.9.2-7.7.5-11.6.7-1.7.1-3.4.1-4.9.1h-.8c-5.1.3-10.1.6-15.1.7-.6 0-1.3 0-1.9.1h-.5c5.8-.2 11.6-.4 17.5-.7h3.2c.8 0 1.5.1 2.1.1.8-.1 1.9-.2 3.1-.3 1.5-.1 3-.1 4.4-.2 1.4 0 1.8.1 2.8.2.8.1 2.4.1 4.2 0-1.8.3-4.4.5-6.7.5-2.7.1-5.5.1-8.3.3-5 .3-10 .6-14.9.8l-32.7 1.5-6.3.3H194c-8.8.5-17.7.8-26.5 1.4-1.7.1-3.5.2-5.3.3-5.7.2-11.3.5-17 .9-2.1.2-4.2.3-6.1.2-6.4.5-12.9.8-19.4 1.2-3.9.6-8.6.7-13.1.9h-.1c.4 0 .8.1 1.3.1H111.2c.2 0 .3 0 .5.1 5.1-.3 10.2-.6 15.3-.8 2.4-.1 2.6-.1 1.4.3-5.8.3-11.5.6-17.3.9-5 .4-10.1.7-15.4 1.1 2.7.3-.8.9 2.2 1.1 2.4-.1 4.8-.3 7.2-.4 1.3-.1 3-.1 2.7.1-.2.2-1.8.3-3.1.4-2.1.1-4.1.2-6.2.3-.4.1-.5.2-.3.2.7 0 1.4-.1 2.2-.1 3.9-.2 8.1-.5 9.6 0 .4.1 2.2 0 3.7 0 2.9-.1 5.7-.3 8.6-.5 2.1-.1 4.2-.3 6.3-.4 2.5-.1 4 0 4.9.1 1.1.1-2.1.3-2.6.5-1.3 0-2.9.1-3.7 0-1.7-.1-3.2.1-4.8.2-1.5.3-3.8.5-5.4.4-3.1-.1-6.4.2-9.7.4-5.8.4-11.5.9-17.3 1.3-.6.1-1.1.2-1.7.2-8.6.6-17.1 1-25.4 1.2-3.1.1-6.7.2-8.8.1-2.7-.1-5.6 0-8.8.1-4.2.2-8.3.3-14 .7 1.9-.6-.6-.7 0-1.1 7.6-1.1 16.6-1.7 26.5-2h1.3c1.1-.2 2.7-.3 4.4-.4 1.3-.3 5.4-.5 5.2-.7-.3-.3-4.4 0-6.6 0-.9 0-2 .1-3 .1-1.4-.1-2.9-.1-4.3-.2-1.7.2-3.3.3-5 .4-1.5.1-2.6.2-2.6.4s-1.2.4-3.2.5c-2.3.1-4.1.1-4.4-.1-.2-.1-.2-.3-.3-.4.3-.1.5-.1.7-.2 0-.1.5-.2 1.7-.3.1-.1.1-.3.4-.4.2-.1 1.1-.2 2.3-.3h1.4c.4.1.4.2.6.4 1.3-.1 2.6-.1 3.9-.2 1.2-.2 1.9-.4 2.3-.7.5-.3 2.2-.5 4.7-.7 2.6-.2 5.3-.3 7.9-.5 1.9-.3 4.5-.4 6.7-.6 2-.2 3.9-.4 1.4-.4s-6.2.2-7.9 0c-.7-.1-.2-.2.9-.3 4.2-.3 8.4-.5 12.2-.4 3.2-.2 3.2-.2 2.3-.6-1.8-.1-2.1-.2-.9-.5.9-.2.5-.4-1.7-.3-4.7.2-7.2.1-6.2-.4.2-.1-.8-.2-1.3-.3-1.7-.4-2.2-.9-.5-1.5.8-.3 1.8-.6 1.5-.8-1-.8 2.4-1.7 2.9-2.6.3-.4-.1-.5-3.9-.3-3.9.1-7.8.6-11.6.6-4.4 0 3.8-1-2.7-.9h.1c-2 0-3.3 0-3.9-.2-.9 0-1.3 0-1-.1-2 .2-4.7.2-6.5.5h.1c-2.8.4-6.3.7-8 1.1h2.1c2.6 0 2.5.1 1.4.4h.2c-4.4.4-8.7.8-12.6.6.3-.1.6-.1.9-.2-2.4-.1-1.4-.5-4.6-.5-1.2 0-1.5-.2-2.1-.3-.8-.2 0-.3 1.7-.5 1.9-.2 3.7-.4 5.9-.4h4.6c2.9-.1 4.5-.2 6.4-.7.5-.1 1.2-.2 1.8-.3 2.6-.5 6.3-.5 9.5-.7 2.7-.2 5.5-.2 7.6-.6h.1c-.7 0-1.4-.1-2-.1-4.7.2-9.2.6-13.8.9-5.7.4-7.3.2-5.9-.4.2-.1.3-.1.4-.2 4.3-.6 9.6-.8 14.6-1 4.8-.5 10-.9 15.5-1.2 2.4-.3-.4-.5 2.6-.7.6 0 1.2-.1 1.7-.1.9-.1 1.8-.2 2.7-.2 0-.1.4-.3-.6-.3-1-.1-3.3.1-4 0-.6 0-.9 0-1.2-.1-.4 0-.7 0-1-.1-.4-.4-2.8-.4-6.5-.2-4.6.2-9.4.6-13.6.5h-6c-2.2-.1-4.4-.2-6.6-.2 0-.3 0-.5-.1-.8 0-.2-.1-.3 1.3-.5.5-.1 1.4-.3 2.7-.3h.3c-.3 0-.3-.1 0-.2 2.3-.1 3.8-.4 5.5-.6.2-.2 1.4-.4 2.8-.5 5.2-.7 13.7-1.2 18-2-6.7.4-13.5 1-20.2 1.1-1-.1-2.9 0-4.4 0h-1c-1.4.1-2.8.1-4.2.2-1.2.1-2.4.1-3.6 0-4.4.2-8.8.3-13 0H17.8c-1.6-.1-1.6-.5-.8-1 .3-.2.7-.4 1.1-.6 1.7 0 3.4-.1 5 .1.9.2 1.9.2 2.9.2.7 0 1.4 0 2.1.1h.5c.5.1.8.1 1 .3.6.1 1.2.1 1.9.1s1.5 0 2.1.1c1.7-.1 3.4-.2 5.1-.1 1.8 0 3.6-.1 5.4-.2.5 0 1 0 1.5-.1h.5c.6 0 1.3-.1 1.9-.1-1.1 0-2.1-.1-2.4-.2 1.4-.2 2.9-.4 4.7-.6 4.2-.4 1.4-.5.5-.7-6 .4-6 .4-8.6.1-1.8 0-3.5.1-3.4-.2.1-.1.1-.2.2-.3-1 .1-2.1.1-3.1.2-.7 0-1.3.1-1.9-.1h-.4c-.2.1-.6.2-1 .2 0-.1 0-.1-.1-.2-1 0-2 .1-2.9.1-.2 0-.4-.1-.6-.1-2.5.1-4.9 0-7.4.2-1.2.1-2.3.1-3.5.2h-1c-.1 0-.3-.1-.3-.1 0-.1.1-.2.3-.3.2-.1.6-.1.9-.1.4 0 .8 0 1.1-.1.3 0 .6 0 1-.1 1.2-.1 2.5-.2 3.7-.1 2.4.1 4.9.1 7.3.1.9 0 1.8-.1 2.7-.1.5 0 1 0 1.3.1h1.1c-.5 0-1-.1-1.4-.2l-.1-.1h-.6c-1 0-2.1.2-3 0-2.6 0-5.2-.1-7.8-.1-1.1 0-2-.2-3.1-.1-.1 0-.2-.1-.3-.1-.1-.1-.4-.1-.4-.2 0-.2.4-.2.7-.2h2.7c1.5 0 3-.1 4.4 0 2.9.2 5.9 0 8.8 0 .7 0 1.5-.2 2 .1h1c1.1-.1 2.1-.1 3.2-.3.3-.1.6-.1.9-.1.9-.4 1-.8 1.7-1.2h.1c.5-.1 1-.3 1.6-.4.2 0 .4-.1.6-.1H47c-.9.3-1.9.3-2.8.2h-2c-2.8.1-5.6.3-8.4.4-.2 0-.5 0-.7.1-.2 0-.1.1.1.1s.7.1.1.2c-.7.1-1.5.1-2.1-.1-.8-.2-1.7-.2-2.6-.2-1.7.1-3.5.2-5.3.2-3.6.1-4.2-.1-4.6-.3-.1-.1-1.3-.1-2-.1-2.4-.4-2.6-.5.9-.7-.6-.2-1.2-.4-2.1-.5-.2 0-.2-.1-.1-.2.2-.1.4-.2.7-.3.9-.1 1 .3 1.8.3.3-.1.2-.4.6-.5 1 .3 2.8.1 3.5.6h.1c.3 0 .7-.1 1-.1-.9-.4-.9-.5-.9-.6zM34.9 21.5c-.1 0-.2.1-.4.1l-1 .1c-.2-.2-.8-.4-.6-.7.5 0 1.1-.1 1.7-.1.5 0 1-.1 1.2.1.3.4-.5.4-.9.5zM476 3.9c-1.8 0-3.7.2-5.5.3-1.2 0-2.4.2-3.5 0-4.1.2-8.1.4-12.2.6-.5 0-1 .1-1.5 0-1-.1-2 0-2.9 0-.6 0-1.2 0-1.8.1.8-.2 1.6-.2 2.4-.4.9-.2 1.6 0 2.4-.1.6 0 1.2 0 1.6-.2h.4c.7.2 1.6.1 2.4 0 3.4-.2 6.7-.3 10.1-.5.7 0 1.5-.1 2.1 0 3.6-.2 7.2-.4 10.9-.5h.4l.2.2c1.1 0 2.3 0 3.4.1.4 0 .9 0 1 .3-3.3 0-6.6 0-9.9.1zM507.7 3.9c-.3 0-1.1 0-.8-.3.7 0 1.3-.1 2-.1-.4.4-.5.4-1.2.4zM519 4c-.2 0-.4-.1-.6-.1-1.1 0-2.2-.1-3.3-.1-.1 0-.2-.1-.3-.1 0-.1.2-.2.5-.2 1.2 0 2.4.1 3.6 0h.5c0 .1.1.1.1.2.3.1.4.2.2.3h-.7zM254.1 9.6c-.2.1-.3.1-.5.2l-2.7.1 1.2-.4h.5c.5-.1 1-.2 1.5-.1.1.1.1.1 0 .2z"/><path class="st0" d="M16.3 72.4c.2-.1.3-.1.5-.2.3 0 .7 0 1-.1.4-.2.9-.3 1.4-.3-.6-.2.2-.5.5-.7.6.2 1.3.4 2.2.2.5-.1.9 0 1.2.1l.5.5c-.7 0-1.3.1-2 .1-1 .1-2 .1-2.9.2-.4 0-.8.1-1 .2-.4.1-.5.2-.5.4-.4 0-.8.1-1 .2-.2-.1-.3-.1-.5-.2v-.4c.3.2.4.1.6 0zM165.8 20.8c-.5 0-1 0-1.5.1-.7-.3-1.7-.1-2.5-.1v-.4c1.2 0 2.3-.3 3.5-.2.7.2 1.3.2 2-.1l1.5-.1c.1 1-1.6.8-3 .8zM43 21.8c-.2 0-.5.1-.6-.1 0 0 .2-.1.2-.2.1-.1.2-.1.3-.2.5 0 1-.1 1.5-.1l-.4.5c-.3.1-.6.1-1 .1zM67.2 19.4c.1-.1.4-.1.6-.1.7.1 1.4 0 2.1-.1.4-.1 1-.1 1.4-.1.2.1.3.2.5.3-1.4.1-2.8.1-4.1.2-.3 0-.6-.2-.5-.2zM521.1 7.7c-.3-.1-.7-.1-1.1-.1-.6 0-1.2.1-1.7 0-.1 0-.3-.1-.3-.1 0-.1.2-.1.5-.2h.5c2.8.1 5.6.1 8.5.1.2 0 .4.1.6.1h6.5c.2.1.6.1 1 .1.5 0 1-.1 1.4 0 .6.1 1.3.2 2 .2.3 0 .4.1.3.2-.1.1-.4.1-.6.1-1.4-.1-2.8-.1-4.1-.3-2.5.1-4.9-.2-7.4-.2-1.2.1-2.3.1-3.4 0-.9.1-1.7 0-2.7.1zM394.6 9.9c-.7 0-1.3 0-1.9.1-1.4.3-2.8.2-4.2.3 1-.4 2.1-.6 3.5-.6 1.6 0 3.2.1 4.8-.2l.2.1s0 .1-.1.1c-.7.1-1.4.2-2.3.2zM383.4 10.8c-.5 0-.9 0-1.4-.1-.4.3-.9.5-1.8.4-.7-.1-1.3 0-1.9.1-2.6.2-5.1.4-7.7.7-.4 0-.8 0-1-.1-.7-.2-1.1.3-1.8.2-1.7-.1-3.4.1-5.2.1-.3 0-.7 0-.9-.1-.1-.1-.3-.1-.3-.2s.2-.2.5-.2c3.7-.4 7.4-.6 11.1-.8 1.4-.1 2.7 0 4.1-.2.8-.1 1.6-.1 2.4.1.2-.1.3-.1.5 0h.4c.2-.1.3-.1.5-.2h.5c.7 0 1.4-.1 2-.1.8.1 1.4 0 2.1-.1.3-.1.9-.1 1 .1.1.2-.4.3-.7.4h-2.4zM348.6 12.5c.6 0 1.2-.1 1.7-.1 1.6.1 3.3 0 4.9-.1h1.7c.2 0 .3.1.2.1l-.1.1c-.4.2-.9.2-1.4.2l-6 .3c-.7 0-1.3.1-2 .1-1.3.3-2.6.4-4 .2-.9.1-1.8.4-2.9.2-.2 0-.7 0-1 .1-.9.2-1.9.2-2.9.3-4.2.2-8.4.4-12.7.7v-.4c5.1-.3 10.2-.5 15.3-.8.7 0 1.5 0 2.2-.2 1.1-.2 2.3-.2 3.4-.3h.5c.7-.3 1.6-.2 2.5-.3.3-.1.4-.1.6-.1zM541.4 5.7c-.1 0-.3.1-.5.1-1.8-.1-3.7-.2-5.5-.3.2-.1.4-.2.8-.2l5.1.3c.2-.1.2 0 .1.1zM460.9 2.1c.2.1.3.2.5.3-.6 0-1-.1-1.5-.1.2-.1.6-.2 1-.2zM464.8 2.6c-.6 0-1.2 0-1.8-.1.2-.2.6-.2 1-.2.5 0 1 0 1.4-.1.2.4.1.4-.6.4zM6.3 38c-.3-.1-.5-.2-.3-.3.1-.1.5-.2 1-.2.7 0 1.4 0 2.1.2.6.2.1.4 0 .6-.1.1 0 .2-.1.4 0 0-.2.1-.3.1h-.4c-.2-.4-.9-.5-1.6-.7-.2-.1-.3-.1-.4-.1zM11.4 34.3c-.7.1-1.5-.2-1.4-.4 0 0 .1 0 .1-.1.6-.1 1.5.3 1.4.4.1.1 0 .1-.1.1zM7.8 34.4c-.3 0-.5 0-.6-.1-.3-.3 0-.4.9-.4v.4s-.2.1-.3.1zM10.2 38.4c0-.1.5-.2.8-.2v.4c-.4 0-.9 0-.8-.2zM8.8 45.9h.6c.6.1.6.3.6.5s-.2.4-.8.6h-.7c-.3-.1-.6-.3-.8-.4-.3-.2-.2-.3.3-.5.3-.1.6-.2.8-.2zM9.9 29.5c-.1 0-.1 0-.2-.1-.1-.2.7-.4 1.2-.4.1 0 .3.1.3.1 0 .2-.8.4-1.3.4zM555.3 7c-1.4-.2-2.8-.3-4.2-.5.2-.1.5-.2.8-.2 1.6.1 3.3.1 4.7.5-.3.2-.8.2-1.3.2zM554.9 6.3c-1.4-.2-3.1-.2-4.4-.5-.7 0-1.3 0-2-.1h-.5c-.4-.1-1.1 0-1.5-.1-.2-.1-.6-.1-1-.2-1.9-.1-3.7-.3-5.6-.4-.6 0-1.1-.1-1.5-.2-.2-.1-.1-.2.3-.3h.7c.1 0 .2.1.4.1 1.9.1 3.8.2 5.7.4.8.1 1.6.1 2.4 0 .2.1.6.1 1 .1.2.2.5.3 1 .3.2.1.6.2 1 .2h.5c1.1.1 2.2.3 3.3.4.2 0 .7.1.2.3zM79.2 21.9c-.5 0-.9.1-1.2.3h-1.4c-.9.1-1.9.2-2.9.1-.1 0-.2-.1-.2-.1-.1-.1 0-.1.2-.1 2.1-.1 4.2-.2 6.2-.5 0 .1-.1.3-.7.3z"/><g><path class="st1" d="M291.4 15.2c.6.2 1.5-.1 2 .1l1.5-.1c.7-.2 1.3-.2 2-.1h1c2 .2 4-.2 6 0 .2 0 .5-.1.7-.1 1.5.1 3.2-.1 4.6 0 1.6.1 3.1 0 4.7 0h7.3c1 0 2-.1 2.9 0 .5.1 1.1 0 1.7 0 1.7-.1 3.3-.1 5-.2 0 0 .1 0 .2-.1h.3c.6.1 1.2 0 1.8 0 0 0 0 .1.2.1.8 0 1.7 0 2.5-.1 1.9-.1 3.8-.1 5.6 0 .7.1 1.3 0 1.9 0 3 0 5.9 0 8.8.1 1.3.1 2.6.1 3.9.1 1.2 0 2.5 0 3.7.1 1.1.1 2.2 0 3.3-.1 1.1-.1.7-.3.2-.5-3.5-.2-6.9-.6-10.5-.1h-.5c-.3.1-.7.1-1 0-.8-.2-1.8.1-2.5-.1h-.5c-.5.2-1 .2-1.5.1-2.2-.4-4.7 0-7-.1h-.5c-1.9-.3-3.8 0-5.8.2 0-.1-.1-.1-.2-.2h-.5c-2.6-.4-5.4 0-8-.1h-.5c-.3-.1-.7 0-1-.1-3.7.4-7.4-.1-11.1.5-.4.1-1 .1-1.4 0-1.2-.1-2.3-.2-3.5.1h-.5c-.8-.2-1.7.1-2.5-.1-2-.2-4 .2-6 0-2.4.1-4.8.2-7.1.2-.2 0-.3 0-.4.1.4.3.5.3.7.4zM323.4 14.1zM558.7 62.1c-1.2 0-3.1.2-3.5.4-.3.2-.1.3 2.1.3 2.4 0 5-.2 5.3-.4.5-.1-1.8-.3-3.9-.3zM501.4 79.5c-.7 0-1.3.1-2 .1-1.2.1-2.5.4-1.7.4s2 .1 2.8 0c3.4-.2 6.7-.4 10.5-.6-3.3-.1-6.5 0-9.6.1zM561 76.9c-.8 0-1.9.1-2.9.1-1 .1-2.2.2-1.6.3.4.1 1.3.1 2.2.1 1.7 0 3.5-.1 5-.3.5-.1.9-.1.9-.2 0 0-.7-.1-1.2-.1-.6 0-1.4 0-2.4.1zM536.6 67.1c-2 .2-3.7.4-5.4.7-.4.1-.6.2-.4.2.8.1 1.8 0 2.7-.1 2.4-.3 4.9-.5 7.3-.8-1.5-.2-3.1-.1-4.2 0zM566.1 67.9c-1.8.1-2.2.2-2.1.4.1.2 1.2.2 2.8.1s2.4-.2 2.3-.4c-.1-.1-1.4-.1-3-.1zM392.4 78.3v.4c2.1-.1 4.2-.1 6.4-.2-1.1-.3-1.1-.3-6.4-.2zM488.5 78.6c-.3 0-.5.1-.7.1.3 0 .5 0 .7-.1 2 .1 4.1 0 6-.1.1 0 .1-.1 0-.1-2 0-4 .1-6 .2zM542.8 78.2c2.4-.1 3.2-.4 4.6-.6.6-.1.7-.2.1-.2h-1.9c-1 .1-2 .1-2.9.2-1.6-.1-3.2 0-4.8.2-.7 0-1.3 0-1.9.1-1.9 0-3.5.1-4.6.3-2 .1-4 .2-5.9.4-3.3.2-3.3.5-.1.6h3.8c1.8.2 4.2.1 6.8 0 2.8.1 6.1.1 9.5 0 .6 0 1.5-.1 1.7-.1.3-.1.4-.2 0-.3-.9-.1-2.5-.1-4.4-.1h-.1c-.7 0-1.4-.1-2.1-.1l.2-.1s-.1-.1-.2-.1c1.2 0 1.9-.1 2.2-.2zM542.3 67.8c.9 0 1.1-.1.5-.2h-1.7c-.2.1-.7.1-.5.2h1.7zM581.7 26.5c-.5 0-.8.1-1.2.2.3 0 .6.1 1 .1.6 0 1.4-.1 1.7-.1.6-.2-.4-.3-1.5-.2zM70.5 86.5c-4.4.4-4.5.4-2 .6.6 0 1.3 0 1.9-.1.1-.1.2-.1.3-.2 1.1-.1 1-.2 0-.2-.1 0-.1 0-.2-.1zM435.4 73.3c-.6 0 .1.2.3.3 3.6-.1 7.1-.3 10.7-.4.7-.2 4.2-.2 4.6-.5-1.1 0-2.1 0-3.2.1-4.1 0-7.9.5-12.4.5zM287.8 81.8c-.4-.1-1.5-.1-2.3 0s-1.3.2-1.9.3c.1.1.1.3.2.4.7 0 1.4 0 2.1-.1 2.5-.2 2.6-.4 1.9-.6zM314.2 81.6c-2.2.1-4.3.2-6.5.2 2.1.2 5.1.2 8.5.1 1-.2 1.6-.4-2-.3zM392.7 77.6c-.9 0-2.2 0-3 .1-1.4.1-1.6.3-1.7.4 1.1 0 2.1-.1 3.2-.1s2.1-.1 2.3-.2c0-.1-.4-.2-.8-.2zM534.4 54c-.5 0-1.5.1-1.7.1-.2.1 0 .1.3.2.6.1 1.5.1 2.4.1 3.3.1 7-.1 10.5-.3-1.4-.1-2.8-.1-4.3-.2-2.4.1-4.8.1-7.2.1zM572.5 39.5c.2.1.6.1 1.1.1 2.8 0 5.6-.1 8.1-.3.6 0 .5-.2.7-.3-2.8.1-5.5.2-8.3.3-.8 0-2 .1-1.6.2zM548.9 60.2c1.5.1 2.9 0 3.9-.2-.7 0-1.5-.1-2.2-.1-1.4 0-2.6.2-1.7.3zM262.1 83.8c-1.1.1-.9.2 0 .2.8 0 1.5.1 2.3.1.6 0 1.1 0 1.7-.1 0 0 .3 0 .8-.1h1.8c2.7-.1 5.4-.2 8.2-.3.2-.4 5.1-.4 7.5-.8-7 .2-13.2.4-19.5.7-.9.1-2 .2-2.8.3zM231.6 84.5h2.3c2.9-.2 6.4-.3 6.3-.7-1.7.1-3.5.1-5.2.2-2.4.1-3.6.2-3.4.5zM295 82.5c-1.8.1-3.6.1-5 .3-.2 0-.5.1-.6.1-.1.1.4.1 1.2.1l6.3-.3c.4 0 .6-.1.7-.2 0 0-.3-.1-.6-.1-.6.1-1.3.1-2 .1zM244.7 83.8c.9.1 2.5.1 4.2 0 .7-.1 1.4-.2 2.2-.3h.1c-2.2-.2-4.3.2-6.5.3zM261.7 83.1l-.1-.1h-5.7c.7.4.7.4 5.8.1 0 .1 0 0 0 0zM50.8 74.6c-3.6.1-7.3.2-10.9.4-3.5.2-7 .4-10.4.6-.9.1-1.2.1-.8.2.3 0 .8.1 1.4.1s1.5 0 2.1-.1c5.3-.4 10.5-.5 15.8-.5 4.6 0 8.4-.3 11.6-.8-2.4-.2-5.8.1-8.8.1zM38.9 58.5c.6.1 1.5.2 2.2.1 2.4-.4 6.2-.4 8.8-.6 2.3-.2 3.2-.5 2.8-.7-.4-.3-2.4-.3-4.6-.3-11 .1-22.2.6-33.4 1-1.5 0-2.6.2-3.5.3 4.4.4-4.7.5-4.2.8.8 0 1.6.1 2.5.1 5.4-.2 10.7-.3 16.1-.6 5.2-.4 9.9-.4 13.3-.1zM104.9 64.6c3.7-.1 7-.3 8.6-.7-2.7.1-5.4.1-8.1.2-1.9 0-3.3.1-4.9.2-1.3.4 3.5.1 4.4.3zM331.8 8.4c.5.1 1.1.1 1.7.1h.7c.6 0 1.1 0 1.6.1h1c1-.2 2-.1 2.9 0h.7c.7 0 1.3.1 2 .1h1.4c1.1-.1 2.1-.1 3.2 0h4.5c.5-.1 1.1-.2 1.6 0 .4.1.8.2 1.3.2.6 0 1.2 0 1.7.1h.7c.8 0 1.5-.3 2.3-.1.8 0 1.7-.1 2.5-.1.8.2 1.8-.1 2.5.1l1.5-.1c.6 0 1.2 0 1.7-.1.4 0 .9 0 1.3-.1-1-.2-2-.2-3-.2-.7 0-1.5.1-2.2 0-3.5-.1-6.9-.3-10.5-.1h-1c-2.8-.2-5.6-.3-8.5-.2-.3 0-.6-.1-.8-.1h-1.4c-1 .1-1.9.3-2.9.1-.2-.1-.4-.1-.6-.1-.6 0-1.2-.1-1.8-.1-.5 0-1 0-1.5.1-.9.2-2 0-2.9.3 0 0 .1.1.3.1zM124.5 56.4c.3.1.7.1 1 0 .5 0 1 0 1.5-.1 2.2-.2 4.3-.3 6.5-.2h.5s.1 0 .2-.1h.9c.4-.1.8-.1 1.2-.2 1.1.1 2.3-.2 3.3 0h.5c.3-.1.6-.2.9-.2 2.1-.1 4.1-.3 6.2-.3 2.9 0 5.8-.2 8.7-.3 1.5 0 3-.1 4.5-.2.4 0 .8-.1 1.2-.1.2 0 .3-.1.2-.1s-.2-.1-.3-.1h-2.2c-7.4.3-14.7.5-22.1.8-.1 0-.2-.1-.5-.1-1.4-.1-2.8 0-4.2 0-2.6 0-5.1.4-7.7.5-8.3.2-16.6.7-24.9 1.1-.7 0-1.5.1-2.2.2-.2 0-.4.1-.5.2-2.3.1-4.6.2-7 .2-.3.1-.3.3 0 .4h1c.3.1.7.1 1 0 1.3-.3 2.7-.1 4-.1.2-.1.7-.1.9-.2.1.1.3.2.5.2s.5.1.8.1c3-.2 6-.4 9-.3.3 0 .5 0 .8-.1 1.2-.2 2.5-.1 3.7-.1.3 0 .5 0 .8-.1 3.2-.1 6.4-.4 9.7-.5.3 0 .5-.1.8-.2.3-.2.8-.2 1.3-.1zM140.2 17h1c1 0 1.8-.2 1.6-.3-.4-.2-1.1 0-1.6-.1h-1l-.1.1c-.1.1-.4.1-.4.2 0 .2.3.1.5.1zM233.6 16.5c.8.2 1.8-.1 2.5.1h1c2.6.2 5.4-.3 8-.1.3.1.7.1 1 0h.5s.1 0 .2-.1h.3c.6-.1 1.3-.2 1.9-.2 1.4-.1 2.8-.1 4.2-.2 1.1-.1 2.2-.2 3.2-.5-2-.1-3.9 0-5.7.1-.7 0-1.5.1-2.1-.1h-1s-.1 0-.2.1h-1.9c-.5-.1-1-.1-1.5.1 0 0-.1 0-.2.1h-1.3c-2 .1-3.9.3-5.8.2-1.4-.1-2.8 0-4.1 0-.8.1-1.7 0-2.6.1.7.5 1.9.5 3.1.6.1-.2.3-.2.5-.2zM179.5 17.5c2.2.2 4.4 0 6.6-.1 2.8 0 5.6.1 8.4-.1h.7c1 .1 2.1 0 3.2 0 .6 0 1.2-.1 1.7 0 .7.1 1.3 0 1.9-.1.5-.1 1-.1 1.5-.1s1-.1 1.5-.1c.1 0 .2-.1.2-.1s-.1-.1-.3-.1h-.7c-2.9.2-5.7-.1-8.5.1-.7 0-1.1-.1-1.2-.3 3.3-.1 6.7-.3 10-.2 2 0 4-.2 5.9 0 1.8-.2 3.6.1 5.4-.1h1c1 .1 2.1 0 3.2 0 1.6 0 3.2-.1 4.9-.1.3 0 .7 0 .9-.1.4-.4 1.3-.4 2.1-.4.5 0 .6-.2.6-.4h-.5c-1.4.3-2.1.3-3.5.1-1.2 0-2.3.1-3.5.1-2.8 0-5.5-.1-8.3.1-.5 0-1.1-.1-1.7-.1-.5.2-1 .2-1.5.1-1.2.2-2.5.3-3.8.3-.7 0-1.4.1-2.2.1-.7-.1-1.4-.2-2.2-.1-.7 0-1.4.1-2 0-2.1-.1-4.3 0-6.4.1l-8.7.3c-1.1 0-2.3.1-3.3.3-.4.1 1.3.3 3.3.2h1.7c.4.1.8.1 1.3.1.7 0 1.5-.1 2.2-.1h1.5c-.3.2-.8.2-1.3.2-1.2 0-2.4.1-3.6.1-1.2 0-2.3.1-3.5.1-3.2-.2-6.4.1-9.6.2-.6 0-.8.2-.9.4 1.2 0 2.5-.1 3.7-.1 1.4-.1 2.6 0 3.8-.2z"/><path class="st1" d="M209.3 16.7c-.8 0-1.8 0-2.6.1-.1 0-.3.1-.3.1s.1.1.2.1c.6.1 1.5-.1 2 .2 1.2 0 2.3-.1 3.5-.1-.1-.1-.2-.3-.7-.3-.7-.1-1.4-.1-2.1-.1zM127.1 18.1c-.3 0-.3.2-.3.3 1.2 0 2.2-.3 3.4-.3-.9-.3-2-.1-3.1 0zM113.9 20h.9c0-.2-.1-.3-.5-.4h-1c-.2.4-.2.4.6.4zM159.1 14.7h.4c2.1-.2 4.2-.3 6-.8-.3-.1-.6-.1-.9 0l-2.4.3c-1.1.1-2.2.2-3.3.5-.3 0-.6 0-.5.2.1-.2.5-.2.7-.2zM575 12.2c-.3 0-.4.1-.2.2.4.1.7.3.9.5h.4c.1 0 .3-.1.3-.1-.1-.4.9-.5 1.6-.8.5-.1 1.2-.2 1-.5 0-.1.2-.2.4-.3V11c.3-.1.3-.3-.1-.4-.4.1-.8.3-1.3.3-1 .1-1.1.4-1.2.6-.5.4-.6.8-1.8.7zM571.3 7.5zM569.4 7.9h.5c.5.1 1 .3 1.5.1.4-.1.3-.3-.1-.5-.7 0-1.3-.1-2-.1-.7.2-.7.4.1.5zM575.3 33.4c0-.1-.1-.2-.1-.3 0 0-.2-.1-.3-.1-.2 0-.5 0-.6.1s-.1.2-.2.3c-.3.1-.7.2-1 .3s-.6.2-.2.4c.3.1.6 0 .8-.1.4-.2 1-.2 1.5-.3h1c.3-.1.9-.2.5-.4h-1c-.2.1-.3.1-.4.1zM168.4 17c.3 0 .5.1.7.2.6 0 1.1 0 1.7-.1.6 0 .7-.1.5-.4 0-.1-.1-.1-.2-.2h-.5c-.8 0-1.7.1-2.5.1h-.5c.1.2.3.3.8.4zM48.6 27.6c.4 0 .7-.1 1-.3.7-.3 1.7 0 2.5-.3h.5c.4-.2 1.1-.1 1.5-.2h1c.5-.4.5-.4-.5-.5h-.5c-.6.2-1.4 0-2 .3-.7.2-1.7 0-2.5.3h-.5c-.3.1-.6.1-1 .2-.8.1-2.4 0-2.1.5.3.3 1.7.1 2.6 0zM56.3 26.2c0 .2.2.3.8.2.3-.1.6-.1.9-.1 1.2-.2 2.2-.4 3-.8l-1.5.1c-1.1.2-2.5.1-3.5.5.2 0 .3.1.3.1zM487.8 8.7c1-.1 1.9 0 2.9 0 .8-.1 1.6-.2 2.5-.2 2-.1 3.8 0 5.8.1 2.2.2 4.7-.1 7.1 0 .1 0 .1-.1.2-.1 1.4-.1 2.8 0 4.2-.1.2.1.6.1.9.1 0 .1 0 .1.1.2 1.8.2 3.8 0 5.7.1h.7c.5-.1.9 0 1.3 0 1.7 0 3.4 0 5 .2h.8c1.2 0 2.4.1 3.7.1 1.5-.1 3 .3 4.5-.2.1-.1.1-.1.1-.2h.3c1.4.4 3.1 0 4.6.1h2.5c1.9 0 3.7 0 5.5-.3l.1-.1c.3.1.6.1.9 0 .1 0 .1-.1.2-.1h.2c0 .1 0 .1.1.2.6.1 1.2.2 1.5-.1H549.8c1.5.1 3 0 4.4-.2v.2c.2 0 .5 0 .7-.1.8-.4 1.7-.6 2.9-.4.6.1.8-.2.8-.4.5.1.7.4 1.5.3.5-.3 1.4-.1 2-.3h.5c.2-.1.3-.1.5-.2-.1-.2-.2-.3-.6-.3-.6 0-1.2-.1-1.9-.1-1.4.1-2.8-.1-4.3.1-.2 0-.6 0-.9-.1-.4-.1-.8-.2-1.3-.2.1-.2.2-.4.2-.6.1-.2-.1-.3-.6-.3h-1.2c-1 0-1.9-.2-3-.1-.3-.1-.7-.1-1.1-.1h-1.5c-.5 0-.8-.3-1.2-.1-.7.2 0 .3.3.5s.6.3.8.5c.9.2 1.8.2 2.8 0 .1 0 .1-.1.2-.1h.2c.3.1.8.2-.1.2-.7.1-1.4.1-2.2.1-.2 0-.4 0-.5.1h-.4c-.7 0-1.3.1-2 .1-1-.2-2-.2-3 .1-.5 0-1 0-1.5.1-.2-.1-.6-.1-1-.1h-.5c-.2-.1-.3-.2-.5-.3-.1-.1-.4-.2-.5-.1-.7.3-1.1.1-1.6 0-.3-.1-.7-.1-.9 0-.6.2-1.3.1-1.9.1h-2.2c-.5 0-.7.2-.8.3-.7 0-1.3 0-2 .1-3.2 0-6.3 0-9.5.1h-.5V7l-9.6.3c-3.3.1-6.6.2-9.9.4-3.2 0-6.5.1-9.8.2-.3 0-.5 0-.8.1-.8.2-1.9.2-1.6.7h1.1zM562.2 2.2c.1 0 .3.1.4.1 1 0 2 0 2.9.1.3 0 .6-.1.9-.1.6-.1.2-.3.1-.4-.4 0-.8 0-1-.2h-1.2c-.6 0-1.1-.1-1.7-.1-.4 0-.8.1-.9.2 0 .2.2.3.5.4zM526.7 3.2v.4c-.3.1-.3.1 0 .2 1.8.2 1.8.2 4.2 0h1c2.6 0 5.2.1 7.9-.1 1.1.1 1.5-.3 2.3-.6.2.5.9.6 2 .6.9 0 1.7.1 2.6.1.9-.1 1.8 0 2.6.1.5.1.9 0 1.4-.1-.3-.2-.9-.3-1.4-.3-2.4-.1-4.5-.3-6.6-.7-.7 0-1.3 0-2 .1-.4-.2-1-.1-1.5-.1h-2c-.3 0-.6-.1-.9 0 0 0-.1-.1-.3-.1-.7-.1-1.4-.1-2.1-.1.3 0 .5-.1.8-.1.4 0 .8-.1 1-.2v-.2-.2-.2c-.6-.1-1.2-.1-1.8-.2s-1.3-.1-1.9 0c-.1 0-.3.1-.3.1s.1.1.2.1c.5.1 1.2.2 1.4.4-.3.2-.8.2-1.3.2-1 0-2.1.1-3.1.1-.1-.1-.2-.1-.4-.2-1.8-.2-3.5.1-5.2.2.9.1 1.1.6 2 .7.5.1.9.1 1.4.1zM547.9 4.4c-.7-.1-1.4-.1-2.1 0-1.3 0-2.6.1-3.9.1-.6 0-1.2.1-1.6-.1-.3-.1-.7-.1-1 0-.7 0-1.3 0-2 .1-.3 0-.7 0-.6.2 0 .1.4.1.6.1 1.7-.1 3.4 0 5.1-.1h.7c.9.1 1.8 0 2.7 0 1.4.2 2.9.1 4.4 0 .5 0 .9-.2 1.1-.4h-.4c-1.1.1-2.1.2-3 .1zM556.6 1c1.3 0 2.5-.1 3.7 0 .3 0 .5 0 .5-.1.1-.1-.1-.2-.3-.2-.3-.1-.8-.1-1.2-.1-.9 0-1.8.1-2.7.1h-.5c-.3.2.3.2.5.3zM526.3 4.6c2.3 0 4.6.3 7.1 0-2.4-.3-4.7-.2-7.1 0z"/><path class="st1" d="M540.3 5.8c.6-.1 1-.2.9-.5-.1-.2-.6-.3-1-.3-.7-.1-.8.1-.9.3-.3.3-1.2.1-1.5.4.7.1 1.6-.1 2.1.2.1-.1.3-.1.4-.1zM541.9 6.6c-1.1 0-1.5-.3-2.3 0 0 0-.1.1 0 .1.5.1 1.2 0 2.3-.1zM556.3 4.7c.2.1.3.1.5.2.6.1.7.4 1.5.5v-.6c.1-.1.3-.2.6-.3.4 0 .8 0 1.1.1.1.1.1.2.2.2.5.2 1.2.1 1.5-.1s.6-.3 1.1-.3c1-.1 1.9.1 2.9.1 1.4-.3 2.1-.3 3.5-.1.5 0 1 0 1.5-.1.7 0 1.3 0 2-.1v.2h2.7c.3 0 .6-.1.6-.2-.1-.1-.4-.1-.7-.1-.2-.1-.3-.1-.5-.2s-.3-.1-.5-.2v-.2c-.4 0-.8.1-.9.2v.1c-.1.1-.1.3-.5.4-.2-.1-.3-.1-.5-.2s-.3-.1-.5-.2c-.2-.3-.3-.4-1-.2-.9.2-1.8.2-2.7.3-.5 0-.9 0-1.2-.1-3.2.1-6.3.2-9.5.3h-1c-.8 0-1.7 0-2.6.1.4.2.8.1 1.2.1.2.4.7.4 1.2.4zM565.1 37.5h.2c.6-.1 1.9-.2 1.8-.3-.2-.3 1.6-.6 4.6-.8l3.9-.3c5.5-.4 5.6-.6.5-.9-1-.1-2.4-.1-3.9 0h-.4c-.1 0-.1 0-.2.1h-.3c-.6 0-1.2 0-1.8.1.8-.2 1.4-.5 2.1-.8.2-.1.3-.2.3-.2 0-.1-.1-.2-.2-.3-.1-.1.5-.3-.2-.4-.5.2-.9.4-1.4.7-.2 0-.5.1-.7.1-1.9.3-1.9.3-1.7-.4.1-.3.3-.6.4-.9.6-.1 1.2-.3 1.3-.5.2-.4.9-.6 1.8-.8.8 0 1.5-.1 1.9-.4 2.1-.4 3.7-1 3.3-2-.1 0-.1 0-.2-.1-.3-.4-.5-.7-.8-1.1.8-.5-.9-.6-1-1V27v-.5c0-.1.1-.4-.2-.4-.8-.2 0-.3.2-.5.1 0 .3 0 .4-.1v-.1h-.6.1c-1.8-.2-2.1-.2-2.9.4-.1.1-.1.2-.2.3h.1-.1c-.3.1-.6.2-.9.2-.3-.1-.5-.2-.4-.3.2-.3.7-.5.7-.8 0-.1-.4-.2-.6-.2-.9.2-1.9.4-2.8.6-1.7.1-3.1 0-4.7-.2.7-.3 1.5-.7 2.2-1 1.3 0 2.4-.2 3-.6 1.1-.1 1.4-.4 1.8-.7.1-.1 0-.2-.3-.3.3-.1.7-.2 1.1-.2.7 0 1.5-.1 2.2-.1 1 0 1.8-.1 2.4-.4.2-.1.5-.2.8-.2-.7-.2-1.6 0-2.3-.1-.1 0-.4.1-.6.1-1.2.4-2.4.4-3.6.2-.2-.1-.3-.1-.5-.2-.8 0-1.3-.1-1.2-.5.1-.1-.3-.2-.6-.2h-1.7c-.3-.1-.6-.1-.9 0-.3.1-.7.1-1 0-.7-.1-2.3.3-1.7-.4.8-.5.4-.9.2-1.4 1 .2 2.2.2 2.1.9 0 .2.5.4 1.2.2.9-.3-.2-.9 1.5-1.1 1 0 2-.1 3-.1.2.1.3.2.3.4s.2.4.8.5h.9c.3-.1.7-.1 1-.2 1.6-.1 1.7-.2 1.2-.6-.1-.1-.1-.1-.2-.1v-.2c-.5 0-.9 0-1-.2-.1-.1-.3-.2-.5-.3-.3-.1-.7-.2-1.1 0-1.4.4-3 .5-4.7.4-.5 0-1 0-1.3-.2-.3-.1-.9-.1-1.4-.1-.2-.1-.4-.1-.6-.2v.1h-.1.1c-.1-.2-.4-.3-1-.3.1 0 .2-.1.4-.1 1.7-.2 3.5-.4 5.3-.4.5 0 1-.1 1.2-.3.2-.1.3-.1.5-.2-.3-.1-.7-.2-1-.3.5-.4.5-.4-.4-.7.6-.2 1.5-.2 2.3-.4.9-.1 1.3-.4 1.1-.7h.5c-.1-.2-.3-.4-.4-.5h-.2c0-.1 0-.3-.5-.3-.3 0-.5.1-.7.2-.1 0-.2.1-.2.2-1 .2-1.9.2-2.9.1v-.1c.4-.3.3-.4-.2-.5s-1.4 0-1.3-.4c-.6-.2-1.6-.1-2.5-.3.8-.1 1.5.1 2-.1.3-.1.5-.2.8-.2.5-.1.6-.2.7-.4v-.2c.2 0 .4-.1.7-.1.7-.1.6-.3.4-.4h-.5c-.2-.1-.7-.1-1-.1-1-.2-2.4-.2-3.2-.5.2-.2.7-.3.6-.5.5-.1 1.1-.1 1.4-.2.9-.4-.7-.1-.6-.4 0-.1-.1-.2-.1-.4 0-.1 0-.2-.2-.3-.1-.1-.3-.2-.6-.1-.5.1-.9.2-1.4.2-.4.1-.8 0-1.1-.1.5-.2.4-.4.4-.6-.4 0-.8-.1-1.1-.1-1.1.2-2.2.2-3.4.2h-.5c-.6-.2-1.3-.1-2-.1l-.1-.1c-.2 0-.3 0-.4.1h-.5c-.2-.1-.4-.1-.5-.2-1.2 0-2.3.1-3.5.1h-2.1c-.6-.1-1.3 0-1.9 0-2 0-4 .2-6 0-1.2 0-2.2.3-3.5.3-.5-.2-1-.2-1.5.1-2-.2-4-.1-6 0-1.1 0-2.1.1-3.2.1-.5 0-1 0-1.3-.1-1.1-.3-2.4.2-3.5-.1h-1.5c-1.6-.1-3.3 0-4.9.2h-.1c-.5-.1-1.1.1-1.5-.1-3.8.1-7.6 0-11.3.2h-2.7c-1.9.1-3.7.2-5.6.4-.9.1-1.8.2-2.7.1-.7-.1-1.4-.1-2.2.1-.8.1-1.6.1-2.5.2-1.7.1-3.5.1-5.2.2-1.7.2-3.4.2-5.2.3-2.1.1-4.3.2-6.4.4-1.4.1-2.7.3-4.2.4-2 .1-4 .1-5.9.4l-6 .6c-1.5.1-2.9.3-4.4.4-.1 0-.3 0-.4.1-.1 0-.2.1-.2.2 0 0 .2.1.3.1 1.8 0 3.6-.2 5.2-.5 1.1 0 2.1-.1 3.2-.1.5 0 1-.1 1.3-.2 2.8-.1 5.4-.3 8.1-.6.7-.1 1.3-.1 2 0s1.5 0 2.2-.1c1.8-.2 3.6-.5 5.6-.3.4 0 1-.1 1.5-.1.7-.1 1.3-.1 2-.2 4.5-.2 9-.3 13.4-.6 2.3-.2 4.6-.2 7-.3h1.5c.4 0 .4.2 0 .3-.1 0-.2.1-.4.1-.5 0-.9 0-1.4.1h-.5c-.8 0-1.7.1-2.5.1-2.8.1-5.5.2-8.3.4-2 .2-4 .4-6.1.5-2.2 0-4.4.3-6.5.5-.8.1-1.8 0-2.5.3-2.2 0-4.2.4-6.3.5-.2 0-.4.1-.6.2h-.5c-.7 0-1.3 0-2 .1-.1 0-.2.1-.2.1-.6 0-1.3 0-1.8.1h-.5c-.6.2-1.4 0-2 .2h-.4c-.8.2-1.8 0-2.5.3h-.4c-6.2.4-12.4.7-18.5 1.4-.9.2-1.9.2-2.9.3-6.3.2-12.7.5-19 .7l-13.7.3c-.5 0-1 0-1.4-.1h-.4c-2.6-.1-5.2-.1-7.8.2-.1 0-.1.1-.2.1-2.3-.1-4.6 0-6.9 0 0-.1 0-.1-.2-.2-1.2 0-2.5.1-3.7.1-1.7-.1-3.5 0-5.2 0h-.4c-.6-.2-1.3-.1-2-.1-1.6-.2-3.3-.1-4.9 0-.2 0-.4-.1-.6-.1-1.5 0-2.9-.1-4.4-.1-2.3 0-4.6-.1-6.9-.1-2.5 0-5.1-.1-7.6 0-.2 0-.4-.1-.6-.1-1.5 0-3 .1-4.4 0-2.4-.1-4.9 0-7.3 0-.5 0-1.2 0-1.6.2h-2c-.2 0-.4-.1-.6-.1-2.4 0-4.8.2-7.1 0h-.7c-2 .4-4.1.2-6.1.4-.6 0-1.3-.1-1.9-.1-1.4 0-2.8-.1-4.2 0-2.1.1-4.3.1-6.4.2-1.3 0-2.6.1-3.8 0-.8-.1-1.5-.1-2.3-.1-1.5 0-3 .1-4.4.1-2.4-.1-4.8 0-7.2.1-.5-.1-1-.1-1.6-.1h-2.2c-1.6-.1-3.2 0-4.9.1-.9.1-1.8.1-2.7.1-1.3-.3-2.8-.2-4.3 0-.3 0-.7.1-1 .1-2.5.1-4.9.2-7.4.2-.2 0-.4-.1-.6-.1-2.8 0-5.6.1-8.4.2-1.3 0-2.6.1-3.9.1-1.8 0-3.6-.1-5.4 0-2.4 0-4.8.2-7.2.2-.7 0-1.5.1-2.2 0-1.9-.1-3.8 0-5.7.1-.9 0-1.8.1-2.7 0-.4 0-.8-.1-1.2 0-1.9.2-3.8.1-5.7.2-3.8.2-7.6.1-11.4.2h-.7c-.9-.1-2-.1-2.9 0-2.3 0-4.6.1-6.9.2-1.5 0-2.9.2-4.3 0-.3 0-.6 0-.9.1-.4.1-.7.1-1.1.2-.5-.1-1.1-.1-1.6-.1-3.3.1-6.6.2-9.9.2-2.8 0-5.6.2-8.5.3h-.9c-.2-.1-.4-.1-.6 0-1 0-1.9.1-2.9.1-.4-.1-.9-.1-1.4-.1-.9 0-1.8.1-2.7.1l-4.5.2h-.5c-2.2.1-4.3.1-6.5.2-2 .1-4.1.1-6.1.2-.8 0-1.6.1-2.4-.1-.7.3-1.7.1-2.9.4 3.2-.1 5.9 0 8.7-.2.9-.1 1.8-.1 2.7-.1.6.1 1.2.1 1.9.1 1.2 0 2.4-.1 3.6-.1.8 0 1.6 0 2.4-.1.4.1.9.1 1.4.1 2.7-.1 5.4-.2 8.2-.3h2.5c2.8.1 5.6-.1 8.4-.1 3.2 0 6.4 0 9.6-.2h1.2c3.5.2 7.1-.1 10.6-.1 3 .1 6.1-.1 9.2-.1 3 0 6.1-.1 9.1-.1 2.6 0 5.1-.1 7.7-.2.6.2 1.4.1 2.1.1 4.2-.1 8.5-.3 12.7-.4 4.3-.1 8.6-.4 12.9-.3 1.9 0 3.8-.1 5.7-.2.7 0 1.4.1 2.2.1 2.4 0 4.9 0 7.3-.1.2.1.4.1.7.2h.8c3.6.1 7.2-.2 10.7 0 .9 0 1.9 0 2.7-.3.8.3 1.8.2 2.8.2h6.7c-.1.1-.3.1-.4.2-1.7.1-3.5.1-5.2.2s-3.4-.2-5.1.1c-.2 0-.5 0-.7-.1-1 0-1.9 0-2.9.1-.5-.2-1.2-.1-1.9-.1-2.2.1-4.3.2-6.5.2-3.4 0-6.7.1-10.1.2 1.6.2 3.3.2 5 .2 3-.1 6.1-.3 9.1-.1 1.1 0 2.3-.1 3.4-.1 0 .1.1.1.1.2 3.5.4 7.2 0 10.7 0 .7-.2 1.6-.2 2.4-.2h1c2.9 0 5.9-.1 8.8-.1h4.1c2.8.1 5.6.1 8.4 0 .8 0 1.7-.1 2.5-.1 2.1.1 4.2 0 6.4-.1.3.1.7.1 1.1.1.8 0 1.6-.1 2.4-.1.5 0 1 0 1.5-.1.3.2.7.2 1 0h.5c.4.1.8.1 1.3.1 1.1 0 2.1-.1 3.2-.1h.2c.1 0 .2 0 .3.1 1.5.1 3 .1 4.5-.1h.5c.5.1 1 .1 1.6.2 3-.1 5.9.3 8.9 0 1.1 0 2.3-.1 3.4-.1 1.3.2 2.7.2 4.1.2 2.6 0 5.2 0 7.8.1 1.5.1 3.1 0 4.7 0 1.9 0 3.7.1 5.7 0h.2c2 .2 4.1 0 6.1-.1.5.2 1.2.1 1.8.1 1.5 0 3-.2 4.4-.1 1.6.1 3.3 0 4.9 0 .6 0 1.2-.1 1.7 0 1.7.1 3.4 0 5.1 0 .2-.1.4-.1.6-.2-.2 0-.4.1-.6.2 1.2 0 2.3-.1 3.5-.1 1.1 0 2.2-.1 3.2-.1 2.1.1 4.1 0 6.2-.1 2.3-.1 4.7-.1 7-.3 2.4-.2 4.8-.1 7.1-.4h2.5c2.2-.1 4.3-.1 6.5-.2-.9.3-2.3.3-2.9.8h-.7c-.4 0-.7.2-.9.3-1.9.1-3.9.1-5.8.3-2.2.2-4.4.3-6.6.4s-4.5.1-6.7.2c-.7 0-1.4.1-2 0-1.1-.1-2.1 0-3.2 0-2.2.1-4.5.2-6.7.2-.7 0-1.4.1-2 0-1.2-.1-2.5-.1-3.7 0-3.5.2-6.9 0-10.4.1h-.5c-1.3-.1-2.6 0-3.9 0h-2.7c-1.8-.1-3.5 0-5.3-.1-.7 0-1.3 0-2 .1-1.2 0-2.4.1-3.5.1-3.4-.2-6.9-.1-10.3-.1-2.2 0-4.4-.1-6.6-.1-1.9 0-3.7-.2-5.6 0h-1c-.1 0-.2-.1-.4-.1-1.9 0-3.7-.1-5.6 0-2.5.1-4.9 0-7.4 0-1.9 0-3.8 0-5.6.1-4.9.1-6.1 0-10.6-.3h-.5c-2.3.1-4.6-.1-6.9 0-.7 0-1.4.1-2 0-2.3-.1-4.6 0-6.9.1-.4-.1-.8-.1-1.3-.1-1.1 0-2.1.1-3.2.1-1.9-.1-3.7-.1-5.6 0h-1.7c-1.7-.1-3.4 0-5.1 0h-.9v-.1c-.8-.3-1.7-.2-2.6 0-1 0-2 .1-3 .1-2.3.1-4.6.1-6.9.1-2.9 0-5.8.2-8.6.3h-.5c-.3-.1-.8 0-1.1-.1-6.6.2-13.1.5-19.7.7-3.9.1-7.8.2-11.7.2-1-.2-1.8 0-2.5.3-2.7.1-5.3.3-8 .2-.3 0-.6.1-.9.1-1 0-2 0-2.9.1-.8.1-1.6.1-2.5 0-1.1-.1-2.3-.1-3.4.1-.7.1-1.3.2-1.9.1-.8-.1-1.4.1-2.2.1-.9-.2-1.8-.2-2.8-.1-2.3.1-4.6.3-6.9.1h-1.5c-2.6.1-5.1.2-7.7.3-.5-.2-1.2-.1-1.9-.1-2.5.1-5 .2-7.5.2-.6 0-1.2.1-1.7 0-1.1-.1-2.3 0-3.5 0-1 0-2 .1-3 .1-.7-.2-1.6-.1-2.3-.1-5.4.2-10.7.4-16.1.6-2.2.5-4.3.4-6.5.2h-.5c-.5.2-1 .3-1.8.3-1.4-.1-2.4.2-3.2.6h-1c-.3-.1-.7-.1-1.1 0 .4 0 .8 0 1.1-.1.2-.2-.2-.3-.6-.3-1.6-.2-3.3.5-4.2.4-1.6-.2-2.8-.2-4.2.1h-.5s-.1 0-.2.1h-.8-.2c-.1 0-.2 0-.3.1-.5.2-1.2.1-1.8.2H120.6c-.1 0-.2 0-.4.1v-.1c-.7 0-1.5 0-2 .2-1.4.1-2.8.1-4.1.2-1.5 0-2.9.1-4.3.3-.7 0-1.3.1-2 .1-.6 0-1.3.1-2.2-.1.8 0 1.2 0 1.6-.1.4 0 .8 0 1.2-.2-5.4 0-10.6.5-15.9 1 3.1-.1 6.2 0 9.3-.1.7 0 1.5-.1 2.1.1-.3.1-.6.2-.9.2-1.7 0-3.4.2-5.1.2-.8 0-1.6.1-2.4.1-.4 0-.8.1-1.1.2h-.5c-1.4 0-2.8.3-4.1.3-2.6.1-5.2.4-7.8.5.1.2.2.3.7.3 1.3 0 2.6 0 3.9-.2 1.7-.2 3.3-.3 5-.4 1.2 0 2.5-.2 3.9-.3.2-.1.2-.1 0-.2h.1c.1 0 .1.1.2.1 1.9.1 3.9.2 5.7-.3 1.5-.4 3 0 4.5-.1 2.7-.1 5.3-.5 8-.6h.9c.7 0 1.4 0 2-.2 1.1-.1 2.3 0 3.4-.2l3.6-.3c1.5.1 2.9-.1 4.4-.2 8.8-.3 17.7-.6 26.5-.9.5.4 1.3.5 2.6.5 2.8-.1 5.6-.2 8.5-.3h.2c.1 0 .2 0 .3-.1.1 0 .2 0 .3.1.9 0 1.9-.1 2.8-.1.2 0 .3-.1.5-.1h.2c-.1.1 0 .1.1.2h1.5c2.1.1 4.2.2 6.3-.1.3-.1.6-.1.7-.2h.4c.5.2 1 .1 1.6.1 1.9-.1 3.8-.1 5.7-.2 0 0 .1 0 .1.1.2.1.4.1.7.1 4.5.1 9 .1 13.6-.1-.3 0-.5.1-.7.2-1.8 0-3.7.2-5.5.1-2.7-.1-5.3.1-7.9.1h-3.9l-10 .3c0-.1-.1-.1-.1-.1-1.3 0-2.6.1-3.9.1-3.8 0-7.6.2-11.4.4-.1 0-.1-.1-.2-.1-8.3.4-16.7.5-25 1-1.5-.1-2.9.2-4.4.2-1.5 0-3 .1-4.5.2-2.2.1-4.3.1-6.5.3-2.1.2-4.3.3-6.4.4-2.7.1-5.4.3-8.1.5-2 .1-3.9.3-5.9.3H96c-1.5 0-3 .2-4.6.3-1.6 0-3.3 0-4.9.2-.2.1-.4.1-.5.2-.8 0-1.7 0-2.4.2-1.5.3-3 .4-4.5.5l-3.9.3c-.2 0-.4.1-.6.2-.8.1-1.6.1-2.5.2-2.1.1-4.2.5-6.4.5-.7-.6-1-.6-1.3-.5-3.7 0-7.3.3-10.9.9-.3.1-.5.2-.7.2-2.5.2-5 .4-7.3.8-.6.1-1.3.2-1.9.3-1.1.2-2.3.2-3.3.5h-.1s-.1-.1-.2-.1c-.6 0-1.2 0-1.7.2-.9.3-2 .3-3 .5-1.4 0-2.6.4-4 .5-.4.3-1.3.4-2 .6h-.5c-.6 0-1.1 0-1.5.2h-.5c-.1-.1-.2-.2-.6-.1-2.5.2-4.8.8-7.4 1-.2 0-.2.1-.2.2h-.7l-.1.1c-.1 0-.1-.1-.1-.2-.8 0-1.3.2-1.8.3-.7.2-1.3.4-2 .6 0 .3.4.3 1 .2h.5c.4-.2 1.1-.1 1.5-.2.2-.1.6-.2 1-.2s.7-.1 1-.2c2.6-.3 5.2-.7 7.9-.9.4 0 .8-.1 1.1-.2.5 0 1.3-.2 1.6 0 .4.3.7.2 1.3.1 1.3-.2 2.6-.4 4-.4.4-.1.8-.2.7-.4.3-.1.5-.1.8-.2h.4c.4-.2 1.1 0 1.5-.2h1c1.2.1 2.3.1 3.1-.4-.1 0-.1-.1-.2-.1h.4c1.3.3 2.5.5 4 0 .2-.1.8 0 1.1-.1.4-.1.8-.1 1.2-.2 1.5-.2 3.1-.3 4.6-.4 2-.2 4-.5 6.1-.6.2 0 .4-.1.6-.2.6 0 1.2 0 1.7-.1 3.7-.5 7.5-.6 11.2-.9.5.2 1 0 1.4-.1.5.1 1.1.1 1.6-.1h.5c3.2-.1 6.4-.5 9.7-.6.2 0 .3 0 .5-.1 1.2-.1 2.5-.1 3.7-.2.4 0 .8 0 1.1.1.4 0 1 0 1.2-.1.6-.3 1.3-.3 2-.3 1.6-.1 3.1-.2 4.6-.3 3.4-.2 6.7-.5 10.1-.6.7 0 1.5 0 2.1-.2 3.1-.1 6.1-.3 9.2-.4 3-.1 6.1-.3 9.1-.4l15.9-.6 10.2-.3c1.5 0 3 .1 4.6-.1.3 0 .6 0 .9.1v.4c-.8 0-1.6.1-2.5.1-1 0-2.1 0-3.1.1h-2.4c-1 0-2 .1-3 .1-1.7.1-3.3.1-5 .2-1.3-.1-2.6.1-4 .1-5.6.2-11.3.4-16.9.6-.5 0-1.1 0-1.5.1-.9.2-1.8.2-2.8.2-.7 0-.4.2-.3.3-1.5.1-2.9.1-4.4.2h-.5c-1.3-.4-1.3-.4-2.6-.1-.3.1-.6.2-.9.1-2-.1-3.9.1-5.9.1-.2 0-.6.1-.6.1 0 .6-1.1.3-1.7.3-.7 0-1.2.1-1.8.2-.4.1-1 .1-1.4.1-1 0-2 .1-3 .1-.9 0-1.8.2-2.6.3-.3.1-.4.2-.4.3-1.5.1-3 .1-4.5.3-1 0-2 .1-3 .1 0 0 0 .1-.1.1-.6 0-1.3-.1-1.9-.1-1.9.2-3.8.2-5.6.4-3.1.4-6.3.5-9.4 1-1.7.3-3.6.3-5.3.6-1.7.2-3.4.2-5 .5-1.1-.1-1.9.2-2.9.3-.4.2-1 .2-1.6.2s-1.3 0-1.6.2c-.6.3-1.5.3-2.3.4H50c-2.1.3-4.7 0-6.6.7-.3.6-.9.6-1.5.6-1.3 0-2.1.2-2.5.6-.5 0-.9.1-1.4.1-.9.1-.9.1-.6.5-.9.1-1.8.1-2.6.2-.9.1-2 .1-2.8.4-.7 0-1.5 0-2.1.2-.5 0-.9.1-1.4.1-.6 0-1.1 0-1.5.2-1.2 0-2.2.2-3.3.4-1.4.2-2.8.4-4.1.6-.6 0-1 .2-1.5.2-.4 0-.8.1-1 .2-1.3 0-2.6.4-4 .3 0 .5.9.5 2 .4.1 0 .3-.1.3 0 .2.5.3.5 2 0 .4.1.9.1 1.4.2-.1 0-.2.1-.3.1-.5.1-.8.2-1 .4-.7 0-1.3.2-1.9.4-.3.1-.4.2 0 .3h.5c.4-.3 1.7 0 2-.4.2 0 .4 0 .5-.1.8-.2 1.6-.1 2.4-.2 3-.4 6.2-.5 9-1.1.1 0 .2.1.3.1.9 0 1.7-.1 2.6-.2h.2c1.3.2 2.8 0 4.2-.1.2 0 .5-.1.7-.1.3-.1.3-.4.9-.2.3 0 .7 0 1-.1.1 0 .2 0 .3-.1h1.1c.1 0 .2 0 .3-.1.1 0 .3-.1.4-.1 2-.1 3.8-.4 5.8-.4.6 0 1.3 0 1.8-.2 1 .2 1 .2.5.7-1.9.3-4 .4-6 .6-.5 0-1 .1-1.4.1-2.2.2-4.3.5-6.5.7-.4.2-1 .2-1.5.2-2.1 0-4 .3-6 .6-.6 0-1.4-.1-1.6.1-.5.4-1.4.5-2.2.5-1.9.1-3.7.3-5.6.4.1.2.4.4 1.1.3 1.4-.2 2.9-.2 4.3-.3.4 0 .8 0 1.1.1-1.3.2-2.6.3-3.1.9-.2.2-.8.3-1.4.3-.9-.1-1.8 0-2.6.1-.8.2-1.5.2-2.4.2l-.1.1c-.1.1-.4.1-.4.2s.3.1.6.1h1.5c.5 0 1 0 1.5-.1.3-.1.7-.1 1-.2h.5c.3 0 .5-.1.6-.2.5.2 1.2.4 2 .2 1.5-.3 3-.1 4.5-.2-.1.2-.4.2-.7.3-.5 0-1 .1-1.5.1-.3 0-.7.1-.6.3 0 .1.3.2.7.2 1.9-.1 3.8-.2 5.6-.3.3 0 .6-.1.9-.2 2.2 0 4.4-.4 6.6-.5.7 0 1.5-.1 2.2-.2.8-.1 1.3 0 1.8.3.1.1.6 0 1 0 .3 0 .6 0 .8.1-1.3 0-2.4.2-3.7.3-4.2.2-8.4.6-12.5 1.1-.9.1-1.8.1-2.7.2-1.2.3-2.1.7-3.5.9h-1c-.7.1-1.3.2-2 .3h-.5c-.7 0-1.3.1-2 .1-.3.1-.7.1-1 .2-.6.2-1.3.3-2 .4h-1c-.3.1-1.1.1-1 .3s.6.1 1 0h.5c2.3.2 4.6-.1 6.8-.4.1-.1.2-.2.1-.2.7 0 1.5-.1 2.2-.1.5 0 1 0 1.3-.2 3.1-.2 6.2-.6 9.4-.7.7 0 1.5.1 2-.2.3 0 .6 0 1-.1h1.5c.4 0 .8 0 1.1.1h-1.4c-1.6.2-3.3.2-4.5.7-.5.1-1 .2-1.5.2-2 0-4 .1-5.9.4-1 .1-1.9.2-2.9.3-1.8.1-3.6.3-5.4.4-.6 0-1.3.1-1.9.3 1.8 0 3.4 0 5.1.1-.1.1-.7.2-.4.4.7 0 1.5-.1 2.2-.1 1.3 0 2.5 0 3.7.2-.5 0-1.2 0-1.4.1-.7.3-1.8.3-2.5.6-1.1 0-2.1.2-3 .4-.7.2-1.4.4-2.3.4-.8 0-1.5.1-2.2.2-.2 0-.4-.1-.6-.1-.8 0-1.5.1-1.3.5.8 0 1.6-.1 2.4-.1.4 0 .9 0 1.1.2-.3.1-.6.2-1 .2-2.3.1-2.3.1-3.5.5 1.9-.1 3.8-.1 5.6-.2.3 0 .6-.1.9-.2 1.1 0 2.3-.1 3.4-.1.3-.1.8-.1 1.1-.2.3 0 .6 0 1-.1.8 0 1.6 0 2.5-.1.2.1.4.2.5.3.5 0 1 0 1.5-.1h.5c.1 0 .3.1.4.1-.1 0-.2 0-.4.1h-.5c.7.3 1.6.1 2.5.1h1.5c.8 0 1.6-.1 2.5-.1.1 0 .2-.1.2-.1.8 0 1.6 0 2.3-.1 1.3-.1 2.7-.2 4-.4.6 0 1.2 0 1.7-.1 3.6-.3 7.2-.6 10.8-1 3.4-.3 6.9-.6 10.4-.8.9 0 1.8-.1 2.7-.1.4 0 .8 0 1.2.1.1 0 .2.1.2.1s-.2.1-.3.1c-.6 0-1.1.1-1.7.1-.4 0-.8.1-1.1.2h-.5c-.6 0-1.3 0-1.7.1-1.1.4-2.4.4-3.7.4-.7 0-1.5 0-2.1.2-.3 0-.7.1-1 .1-1.1.2-2.1.4-3.3.2-.6-.1-1.3 0-1.8.3-.4.2-1.1.3-1.8.4-1 .1-2 .2-2.9.3-.5.1-.9.1-1.2.4 2.1 0 4.1-.1 6.1-.4.6-.1 1.3-.2 1.8 0-2.7.3-5.2.8-7.9 1.1-.3 0-.6.1-.9.2-1.5 0-2.9.3-4.4.4-.4 0-.8 0-1.2.1-.5.1-1 .1-1.4 0h-.9c-1.2-.2-2.5-.2-3.7.1-.5.1-.9.1-1.4.1-1.1 0-2.3.1-3.4.1-.8.1-1.8-.1-2.5.3-.7.1-1 .3-1 .6-1.3.1-2.7.1-4 .1h-.5c-.6.2-1.4 0-2 .2s-1.3.3-2 .3h-.5c.5.6 1.7.3 2.7.3.6-.1 1.3-.2 2-.2h1l-1.2.3c3.3-.1 6.6-.2 10-.3.9 0 1.8-.1 2.7-.1h.2v-.1c-.5-.1-1-.2-1.6-.1-1.7 0-3.4.1-5.1.1l3.6-.3c.3-.1.7-.1 1-.2h.1c.4.2 1 .1 1.6.1 1.9-.1 3.9-.1 5.8-.2h1.5c-.5.5-1.5.6-1.9.8-.2.1-.2.1 0 .2 1.2 0 2.3-.1 3.5-.1h.5c1.2-.1 2.3-.4 3.5-.1h.5c1.3-.3 2.7-.1 4-.3l2-.1c.3-.1.7-.1 1 0h.5c.3.1.7.1 1 0 0 0 .1 0 .2-.1h.3c1.6 0 3.1-.3 4.7-.2.4 0 .9-.1 1.3-.2 2.3-.1 4.6-.1 6.9-.4h.5c2-.1 4-.2 6-.2h2.4c.9.1 1.8 0 2.6 0 1.3-.1 2.6-.1 4-.2 1 0 2-.1 3-.1h.5c.4 0 .8-.1 1-.2H89c1-.1 2 0 2.8-.3 1-.3 1.6.3 2.7.1.3-.1.6-.1 1-.1.3 0 .7-.1 1 0 1.3.1 2.4-.1 3.6-.2.8 0 1.6-.1 2.4-.1.6-.2 1.2-.2 1.9-.2 3.4-.1 6.8-.3 10.1-.4.9 0 1.8 0 2.6-.2.8 0 1.6.1 2.4-.1 2.7 0 5.5-.2 8.2-.3 5.2-.2 10.4-.4 15.7-.6.6 0 1.2-.1 1.6.1l-.2.2c-.2.3-.1.4.5.4.9 0 1.8-.1 2.7-.1.1 0 .2-.1.2-.1s-.2-.1-.3-.1c-.4 0-.4-.1-.5-.3 1.5-.3 3-.3 4.5-.2-.3.3-.8.4-1.5.4.3 0 .6.1.8.1 2-.1 4.1-.1 6.1-.2.4 0 .6-.1.7-.2.3-.3.8-.2 1.1-.1.4.1.8.2 1.2 0 .3-.2.8-.2 1.2-.2h.1c0 .1 0 .1.1.2.3.1.6.2 1.1.1.8 0 1.6 0 2.4-.1.2 0 .3.1.5.1h-.3c-2.1 0-4.2.1-6.3.2-4.2.2-8.4.2-12.5.5-3.8.1-7.5.3-11.3.4-3.7.1-7.4.3-11.2.4h-.1c-2.4 0-4.8.2-7.2.2-2.7.1-5.4.1-7.9.7-.1.1-.1.2-.1.2h-.1c-1.1.2-2.3.3-3.4.3-1.2 0-2.4.1-3.7.1-.3 0-.6.1-.8.2h-.1c-.1-.1-.3-.2-.8-.2-4.2.1-8.5.2-12.7.4-1.5.2-3 .2-4.5.4-.3 0-.7.1-1 .1-2.9-.3-5.6.1-8.4.5-.3 0-.6-.1-.9-.1-1.7 0-3.4-.1-4.9.4-.4.2-1 .2-1.6.2-2.1.1-4.3.2-6.4.2.1.2.4.3 1.1.3h.9c1.6-.3 3.4-.1 5-.3h1c.9.2 2.1-.1 3 .1h.5c.7 0 1.5.1 2.2.1-.4.1-.8.1-1.2.2h-1c-1.1.3-2.4 0-3.5.3-.6.2-1.3.2-2 .3.2.2.4.1.7.1 2.6-.1 5.3-.2 7.9-.3 1.5-.1 2.9-.2 4.4-.3h1c3.4-.1 6.8-.2 10.1-.4.6 0 1.3 0 1.8-.2 3.1 0 6.1-.4 9.2-.2h.7c1.4-.2 2.8-.2 4.2-.3 5.6-.2 11.1-.4 16.7-.6 5.6-.2 11.3-.4 16.9-.6.7 0 1.3-.1 1.8-.3.6.1 1.2.2 1.9.1 3-.2 6-.1 9-.3.3.1.7.1 1.1.1.5 0 1-.1 1.5-.1 1.8.1 3.6 0 5.5-.1 5.6-.2 11.3-.4 16.9-.6 1.5 0 3 0 4.4-.1l.1-.1-.1.1c.4 0 .8.1 1.2.1 4.6-.1 9.2-.3 13.8-.4.1 0 .2 0 .3.1-5.2.3-10.4.6-15.8.8-2.4.1-4.9.1-6.6.4-.7 0-1.4.1-2 .1-1.1 0-2.2.1-3.2.1-.9.1-1.9.2-2.2.2-.4.1.9.2 1.9.1 3.5-.1 7.1-.1 10.1-.5 1.4-.1 2.8-.1 4.2-.2 0 0 .2 0 .7-.1h.2c-.3 0-.7.1-1 .1.7 0 1.5-.1 2.2-.1 1.4-.1 2.8-.1 4.3-.2 1.4 0 2.8-.1 4.2-.1 0 0 .1-.1.2-.1h1c1.8-.1 3.8-.1 5.5-.3 1.4-.1 2.8-.1 4.2-.2 3.1-.4 6.8-.4 10.3-.5h2.2c2.2-.1 4.5-.1 6.7-.2 1.6-.1 3.2-.1 4.8-.2 2.4-.2 4.8-.3 7.4-.5.3 0 .6 0 1-.1h1c-1 .1-2.1.1-3.1.2s-1.9.1-2.8.2c-2.3.2-4.7.3-7.1.4-2.7.2-6.6.4-6.9.7-.4.3 3.3.2 5.8.2-1.4 0-2.7.1-4.1.2-3 0-6 .1-9 .3-4 .3-8.1.4-12.1.4-1.6 0-3.1-.1-4.7.2-.2.1-.4.1-.4.2h-.5c-2.2.1-4.3.1-6.5.2-.7 0-1.4 0-2.2.1-.5 0-1 0-1.3-.1-3.5-.1-7.1.3-10.6.2-.4 0-.9 0-1.2.2-2.6.1-5.1 0-7.7.4v.4h1c1.6-.1 3.3-.1 4.9-.2.6 0 1.2-.1 1.6.1h.4c.4-.2 1.1 0 1.5-.2.3.1.8 0 1 .1h.9c.5-.1 1-.2 1.5-.1l8.4-.3c.3.1.6.1 1 .1.8 0 1.7-.1 2.5-.1 2.2-.1 4.3-.2 6.5-.2h.8c-1.9.2-4.3.3-6.6.4-4.2.2-8.6.3-12.5.6-5.8.1-11.3.5-16.9.8-8.6.5-17.4 1-26.3 1.3-2.1.4-5.6.6-9.3.7-7.3.2-14.3.6-21.4 1-2.9.1-5.6.3-8 .6-1.2.1-2.3.3-2 .4.3.2 1.8.1 3.2.1 14.7-.6 29.5-.9 44.2-1.7 6.7-.3 13.5-.6 20.3-.6 3 0 6.4-.2 9.6-.3 2.5-.1 5.1-.2 7.6-.2 2.2-.1 4.3-.1 5.8 0-4.1.3-8.5.5-13 .6-7.7.4-16 .7-22.7 1.4-1 .1-1.2.3-1.7.5-1.1.1-2.2.3-3.3.4-.8 0-1.7.1-2.5.1h-.5c-1.4.1-2.9.1-4.3.2-5 .2-10 .3-15 .5-3.1.1-5.4.3-6.8.6-2.2.1-4.4.1-6.5.2-.7 0-1.3.1-2 .1l-.2.2c-.7.1-1.5.2-2.2.3-3.6.1-7.1.3-10.7.4-3.5.5-9.3.3-13.3.8 2.5.2 5.7.1 8.9 0 1.5-.2 3.6-.3 5.8-.4 4.2-.1 8.4-.3 12.6-.4h6.5c2.4 0 5.1-.2 7.5-.2.3 0 .7.1 1.3.1h.1c1.9.1 2.7.2 4.8-.1 1 0 2-.1 3-.1.9 0 1.8-.1 2.7-.1-1.1.2-2.5.3-4 .5-2.7.2-2.3.6-5.4.8-2.1.1-4.2.2-6.3.2 2.4.2 5.6.2 9.2.1l8.4-.3c6.9-.2 13.6-.7 20.6-.9.8.1 1.8.1 3 .1-5.9.5-12.5 1-19.2 1.4-2.8.2-6.9.2-7 .7 5.7.3 12.9.3 20.6 0 19.3-.8 38.7-1.6 57.8-2.6-1.5.1-3 .2-4.3.3 0 .1.1.1.3.2h-.4c-2.1.1-4.2.2-6.3.2-2.1.1-4.3.1-6.4.3-10.7.6-21.5 1.1-32.5 1.5-2.5.1-5 .2-6.8.4-5.9.2-11.9.4-17.6.8-1.9.1-4.2.2-6.2.2-1.7.1-3.3.2-4.3.4-2.1.1-4.2.2-6.3.2-3.3.4-7.6.6-11.6.8-4.4.2-8.8.5-13 .7.2.3.3.5.5.7-2.4.1-4.9.1-6.3.4-2.9.2-4.9.6-8.7.7 1.4.4 1.7.5 4.9.3 4.6-.2 9.2-.4 13.8-.5 9.6-.3 19.2-.7 28.8-1-2.5.4-5.8.6-9.5.7-3.6.1-7.2.3-10.8.4-8.5 0-15.6.6-23.2 1-1.9.1-3.8.4-3.5.6s2.9.2 4.8.2h2.1c5.4-.2 10.7-.3 16.1-.5 5.8-.3 11.5-.2 17.3-.6 1.2 0 2.4.1 3.6.1 5.3-.2 10.7-.4 16.1-.5 3.8 0 7.7-.2 11.6-.3 18.9-.6 37.8-1 56.5-2.1 1.3-.1 2.5-.2 3.8-.3 4.9.1 10.2-.2 15.4-.4 7.9-.3 15.7-.8 23.7-.9 1.4 0 2.9-.1 4.2-.1-2 .1-3.9.1-5.9.2-10.4.6-21.6.8-31.4 1.7-.3.1-.5.1-.7.2-3.6.1-7.3.3-10.8.4-6.6.3-13.3.6-18.7 1.2-1.7.1-3.5.2-5 .3-1.3.1-3.5.1-4 .3 3 0 5.9 0 9-.2 1.9.2 4.9 0 7.5 0s.9.1.2.2c-.4.1-.7.1-1.1.2-5.5.5-11.4.8-17.5 1-10.8.4-21.4.9-32 1.5-3.3.2-6.4.3-7.7.7-.4.1-2.2.2-3.6.3-2.9.1-5.8.2-8.6.3-1.7.3-4.7.3-7.4.5 1.1 0 1.8.1 2.3.1-.4 0-.8.1-1.2.1-2 .2-4 .3-6 .5-.2 0-.5 0-.7.1-8.9.2-17.2 1-26 1.2-1 .1-2.2.2-3.4.3-2.1.1-4.4.2-6.5.3-.6 0-1.1.1-1.5.2-1.3 0-2.6 0-3.9.2-1.7.1-3.5.3-5.3.4 1.4.2 3.5.1 5.3.1 1.1-.2 2.8-.2 4.4-.3.7 0 1.5-.1 2.2-.1 8.9-.3 17.9-.6 26.8-.9 2.2-.1 4.3-.2 6-.4l19.2-.6c3.3.1 6.6.3 11-.2 9.4-.3 18.8-.7 28.1-1 2.9-.1 6-.3 8.4-.2 3.8.1 8.1 0 12.4-.2 8.3-.3 16.6-.6 24.9-.8-.8.2-1.5.3-2.3.5l-4.2.2c-2.5.1-5.2.2-7.4.3-3.9.3-7.8.4-11.7.5-7.3.2-14.1.7-21.2 1-1.2.1-2.4.2-3.5.3 8.2-.3 16.2-.7 24.3-.9 2.1-.1 4.2-.2 6.3-.2 2.6-.3 6.4-.2 8.9-.5h.2c.2 0 .6.1 1 .1 7.1 0 14.2-.4 21.4-.7 1.8-.1 3.6-.2 5.4-.2 2.8 0 5-.1 6.8-.3h1.2c1.1 0 2.2-.1 3.3-.1h.7c.9.1 2.3.1 4.1 0 2-.1 3.9-.2 5.9-.3 1.1 0 2.2 0 3.3-.1 1 0 2-.1 3.1-.1h.1l.1.1h-.2c-1.7.1-3.6.1-4.6.3-.7.1 1.8.2 4.5.1.9 0 1.8-.1 2.6-.1h3.3c1.5 0 3-.1 4.4-.1.3 0 .6.1.9.1-2.1.1-4.2.2-6.3.2-3.6.1-7.2.2-10.8.4-1.9.1-3.5.2-4.7.4-3.1.1-6.4.1-8.7.5-5.8.4-11.6.8-17.4 1.1-5.9.3-11.5.7-17.3 1.1-3.8.2-7.8.3-11.5.5-5.5.3-11.1.5-16.7.7-2.9.2-5.8.3-8.7.5-2.2.1-4.3.2-6.5.2-2 .4-6.6.3-9.1.7 8.6-.2 16.3-.5 24.1-.8 4.4-.1 8.7-.3 13.1-.4-1.2.2-3.1.4-5.2.5-5.4.3-10.9.5-16.4.7-1.9.1-5 .2-4.5.5.3.2 3 0 4.6 0 2.1-.1 4.3-.1 6.4-.2 6.4-.5 13.2-.6 19.8-.9.6 0 1.2 0 1.7-.1 14.1-.5 28.1-.9 42.2-1.4 2.2-.1 4.3-.2 5.9-.4 5.8-.3 11.7-.6 17.6-.6 1.3 0 2.8-.1 4.1-.1 6.4-.2 12.9-.4 19.3-.7 14.5-.7 29-1.3 43.6-1.9 1.7-.2 3.9-.3 6-.4 6.5-.2 13-.5 19.5-.7 4.3-.1 8.8-.3 13.2-.4 8.8-.2 17.4-.5 26-1-.5.1-1.3.2-2.2.2-.8 0-1.6.1-2.4.1-4.8.2-9.8.3-14.7.6-1.6.1-3 .2-4.2.3h.1c-4.3.1-8.6.3-12.9.4-1.3.1-2.6.1-3.9.2-4.1.4-9.3.5-13.4.9-1.8.2-4.4.3-6.5.4-5.3.1-10.3.4-15.2.7-3.1.1-6.4.2-9 .5-3.2.1-6.5.4-9.4.4-8.2.1-15.2.7-22.6 1.1 2.3.2 5.7-.1 8.5-.1 2.8-.1 5.5-.2 8.3-.3 5.7-.5 12.7-.2 18.1-.9 0 0 0-.1-.1-.1 3.8 0 7.8-.2 11.8-.3.5 0 .9-.1 1.1-.1 3.9-.1 7.7-.2 11.6-.4 1.7-.1 3.4-.2 4.9-.3h.8c5.1-.1 10.2-.3 15.1-.6.6 0 1.3-.1 1.9-.1h.5c-5.8.3-11.7.6-17.5.8-1.1.1-2.2.1-3.2.2-.8.1-1.5.2-2.1.3h-3.1c-1.5 0-3 .1-4.4.2s-1.8.3-2.7.4c-.8.2-2.4.3-4.1.4 1.8.2 4.4.1 6.8-.1 2.7-.2 5.4-.3 8.3-.5 5-.2 10-.3 14.9-.5 10.9-.5 21.8-.9 32.8-1.3 2.1-.1 4.2-.2 6.3-.2.6-.1 1.2-.1 1.8-.2 8.9-.2 17.7-.7 26.6-.9 1.7 0 3.5-.1 5.3-.2 5.7-.3 11.4-.5 17-.6 2.1 0 4.3-.1 6.1-.3 6.4-.1 13-.3 19.5-.5 3.9.2 8.7-.1 13.1-.3h.1l-1.2.3h-.2c-1.2.1-2.2.2-3.2.3-.2 0-.3.1-.5.1-5.1.2-10.2.3-15.3.5-2.4.1-2.6.2-1.3.4 5.8-.2 11.6-.4 17.3-.6 5.1-.1 10.1-.2 15.4-.3-2.6.5.9.8-2.1 1.3-2.4.1-4.8.1-7.2.2-1.3 0-3 .1-2.7.3.2.1 1.8.1 3.2.1 2.1-.1 4.1-.1 6.2-.2.4 0 .5.1.3.2-.7 0-1.4 0-2.2.1-3.9.1-8.1.2-9.5.8-.4.1-2.2.2-3.7.3-2.9.1-5.7.2-8.6.3-2.1 0-4.2.1-6.3.1-2.5.1-4 .3-4.9.5-1.1.2 2.1.1 2.6.3 1.3-.1 2.8-.2 3.7-.3 1.7-.2 3.2-.2 4.8-.2 1.5.1 3.8.1 5.4-.1 3.1-.4 6.4-.3 9.7-.4 5.8-.1 11.6-.1 17.3-.2.6 0 1.1.1 1.7.1 8.6-.2 17.1-.5 25.5-1 3.1-.2 6.7-.4 8.8-.6 2.7-.3 5.6-.5 8.8-.6 4.2-.2 8.3-.5 14-.5-1.9-.4.5-.8-.1-1.1-7.7-.4-16.7-.2-26.6.3-.5 0-.9.1-1.3.1-1.1-.1-2.7-.1-4.4 0-1.3-.2-5.5 0-5.2-.2.3-.3 4.3-.4 6.6-.5.9-.1 2-.1 3-.2l4.2-.6h5c1.5 0 2.6 0 2.6.2s1.2.3 3.2.2c2.3-.1 4.1-.3 4.4-.5.1-.1.2-.3.3-.4-.3 0-.5-.1-.7-.2 0-.1-.6-.2-1.7-.2-.1-.1-.1-.3-.4-.4-.3-.1-1.1-.1-2.3-.1-.6 0-1.3.1-1.4.2-.3.1-.4.3-.6.4-1.3 0-2.6.1-3.9.1-1.2-.1-2-.3-2.4-.4-.5-.2-2.2-.3-4.8-.3-2.6.1-5.3.1-7.9.2-1.9-.1-4.5 0-6.7 0-2 0-4-.1-1.5-.3 2.5-.2 6.2-.3 7.9-.7.7-.1.2-.2-1-.2-4.2.1-8.4.2-12.2.6-3.2 0-3.2 0-2.4-.4 1.7-.2 2-.4.9-.6-.9-.1-.6-.3 1.7-.5 4.7-.2 7.2-.5 6.2-1-.2-.1.8-.3 1.2-.4 1.7-.6 2.2-1.1.3-1.5-.8-.2-1.9-.4-1.6-.6.9-.8-2.5-1.5-3.1-2.3-.3-.4.1-.5 3.9-.7 3.9-.2 7.8-.1 11.6-.4 4.4-.4-3.9-.7 2.6-1.1h-.1c2-.1 3.3-.3 3.8-.5.9 0 1.3-.1 1-.2 2 .1 4.7-.2 6.5-.1h-.1c2.8.1 6.4.1 8 .4-.7.1-1.4.1-2.1.2-2.6.2-2.5.3-1.4.5h-.2c4.4 0 8.7 0 12.6-.5-.3 0-.6-.1-.9-.1 2.3-.3 1.3-.6 4.6-.9 1.2-.1 1.4-.3 2.1-.5.8-.2-.1-.3-1.8-.4-1.9 0-3.7-.1-5.9.1-1.5.1-3 .3-4.6.4-2.9.2-4.5.1-6.5-.1-.5-.1-1.2-.1-1.9-.2-2.6-.2-6.3 0-9.6.1-2.7.1-5.5.2-7.6.1h-.1c.7-.1 1.4-.2 2-.3 4.7-.2 9.2-.3 13.9-.4 5.7-.1 7.3-.4 5.8-.9-.2-.1-.3-.1-.4-.2-4.4-.2-9.6.1-14.7.2-4.8-.1-10 0-15.5.1-2.4 0 .4-.5-2.7-.5h-1.7c-.9-.1-1.8 0-2.7 0 0-.1-.4-.2.6-.3 1-.2 3.3-.2 4-.4.6-.1.9-.1 1.2-.2.4 0 .7-.1 1-.1.3-.4 2.8-.6 6.5-.8 4.6-.2 9.4-.2 13.6-.7 2-.2 4-.3 5.9-.5 2.2-.3 4.4-.5 6.6-.8 0-.3-.1-.5 0-.8 0-.2 0-.3-1.3-.4-.5-.1-1.4-.1-2.7-.1h-.3c.3-.1.2-.1 0-.2-2.3.1-3.8 0-5.6-.1-.2-.2-1.4-.2-2.8-.3-5.2-.3-13.7 0-18.1-.4 6.8-.2 13.5-.2 20.3-.7 1-.2 2.9-.3 4.4-.4.4 0 .8-.1 1-.1 1.4-.1 2.8-.1 4.2-.1 1.2 0 2.4-.1 3.6-.3 4.4-.2 8.8-.5 13-1.1.8-.1 1.6-.1 2.4-.2h.3c1.6-.3 1.6-.7.7-1.1-.4-.2-.7-.4-1.1-.5-1.6.2-3.4.2-5 .5-.8.3-1.8.4-2.9.5-.7 0-1.4.1-2.1.3h-.5c-.5.1-.8.2-1 .4-.6.1-1.2.2-1.9.3-.8 0-1.5.1-2.1.3-1.7.1-3.4.1-5.1.3-1.8.2-3.6.2-5.4.3-.5 0-1 0-1.5.1h-.5c-.6 0-1.3 0-1.9.1 1.1-.1 2.1-.3 2.3-.4-1.5-.1-2.9-.2-4.7-.2-4.2-.1-1.4-.4-.5-.7 6-.1 6-.1 8.6-.7 1.8-.1 3.5-.2 3.3-.4-.1-.1-.1-.2-.2-.3 1 0 2.1-.1 3.1-.1.7 0 1.3 0 1.8-.2h.4c.3.1.6.1 1 .1v-.2c1 0 2-.1 2.9-.1.2-.1.4-.2.6-.2 2.5-.1 4.9-.5 7.4-.5 1.2 0 2.3-.1 3.5-.1.3 0 .7 0 1-.1.1 0 .3-.1.3-.1 0-.1-.1-.2-.3-.2-.3-.1-.6-.1-.9 0-.4.1-.8.1-1.1 0h-1c-1.2.1-2.5 0-3.7.2-2.4.3-4.8.5-7.3.8-.9 0-1.8.1-2.7.1-.5 0-1 .1-1.3.2h-1.1c.5-.1 1-.2 1.4-.3.1-.1.1-.1.1-.2h.6c1-.1 2.1.1 3-.3 2.6-.3 5.2-.5 7.8-.8 1-.1 2-.3 3.1-.3.1-.1.2-.1.3-.2.1-.1.4-.2.4-.2 0-.2-.4-.1-.7-.1l-2.7.3c-1.5.1-3 .2-4.4.4-2.9.4-5.8.5-8.8.8-.7 0-1.5 0-2 .2h-1c-1.1 0-2.1.1-3.2 0h-.9c-.9-.3-1.1-.7-1.8-1h-.1c-.5-.1-1-.2-1.6-.3-.2 0-.4-.1-.6-.1h.2c.9.2 1.9.1 2.8 0 .6-.1 1.3-.1 1.9-.2l8.4-.3h.7c.2 0 .1.1-.1.1-.2.1-.7.2-.1.2.7 0 1.5-.1 2.1-.2.8-.2 1.7-.4 2.6-.5 1.7 0 3.5-.1 5.3-.2 3.6-.2 4.2-.4 4.6-.7.1-.1 1.3-.2 2-.3 2.4-.6 2.5-.7-.9-.7.6-.3 1.2-.5 2.1-.6.2 0 .2-.2 0-.2-.2-.1-.5-.2-.7-.2-.9 0-1 .4-1.8.5-.3-.1-.2-.3-.7-.4-1 .4-2.8.4-3.4.9h-1.1v-.4c-.6.1-1.2.2-1.9.3-.4.1-.7.2-.9.3-.3 0-.6 0-.9.1-2.5.3-5.1.4-7.7.6-1.7.1-3.3.2-5 .2-1.3 0-2.7 0-4 .1-.3 0-.7 0-1-.1h-.3c1.4-.1 2.8-.2 4.3-.2 1.8-.1 3.6-.2 5.4-.2.9 0 1.8-.1 2.6-.3 1.1 0 2.2 0 3.2-.2 1.8-.3 3.6-.5 5.3-.9.2 0 .4-.1.5-.1.8 0 1.6 0 2.3-.1 1.5-.1 2.3-.2 2.8-.3.3-.2-.7-.3-2.2-.4h-1c0-.1.1-.1.1-.2.6-.3.8-.5 1.2-.6zm-4.2-28zM546.8 1.1c.1 0 .2.1.4.1h1c.2-.2.8-.4.5-.7H547c-.5 0-1 0-1.2.3-.2.2.5.2 1 .3zM110.9 21.7c1.2-.1 2.4 0 3.5-.3 4.1-.1 8.1-.3 12.2-.4.5 0 1 0 1.5-.1 1-.2 2-.2 2.9-.2.6 0 1.2-.1 1.8-.1-.8-.1-1.6-.1-2.4-.1-.9-.1-1.6.1-2.4.2-.6 0-1.2.1-1.6-.1h-.4c-.7.3-1.6.2-2.4.2-3.4.1-6.8.3-10.1.4-.7 0-1.5 0-2.1.2-3.6.1-7.2.3-10.9.4h-.4c0 .1-.1.1-.1.2-1.1.1-2.3.2-3.4.3-.4 0-.9.1-1 .4 3.4-.2 6.6-.5 9.9-.7 1.7-.3 3.5-.2 5.4-.3zM73.8 24.6c.3-.1 1.1 0 .7-.3-.7 0-1.3 0-2 .1.4.3.6.3 1.3.2zM62.5 25.7c.2 0 .4-.1.6-.2 1.1-.1 2.2-.3 3.3-.4.1 0 .2-.1.2-.1 0-.1-.2-.1-.5-.1-1.2.1-2.4.3-3.6.3H62c0 .1 0 .1-.1.2-.3.1-.4.2-.1.3.2.1.5.1.7 0zM327.2 8.3c.2 0 .3.1.5.2l2.7-.1c-.6-.1-.9-.2-1.3-.3h-.5c-.5-.1-1-.1-1.5.1-.1 0-.1 0 .1.1z"/><path class="st1" d="M569.8 49.3c-.2-.1-.4-.1-.5-.2h-1c-.4-.1-.9-.2-1.5-.2.6-.3-.2-.5-.6-.7-.6.3-1.2.5-2.2.4-.5 0-.9 0-1.2.2-.2.2-.3.4-.5.6.7 0 1.3 0 2-.1 1 0 2-.1 2.9-.1.4 0 .8 0 1.1.1.4.1.5.2.5.3.4 0 .8 0 1 .2.2-.1.3-.1.5-.2v-.4c-.2.3-.4.2-.5.1zM416.2 11.6c.5 0 1 0 1.5-.1.7-.3 1.7-.2 2.5-.3v-.4c-1.2.1-2.3-.1-3.5.1-.7.3-1.3.3-2 .1l-1.5.1c-.1 1 1.6.7 3 .5zM538.7 2c.2 0 .5 0 .6-.1 0 0-.2-.1-.3-.1s-.2-.1-.3-.1c-.5 0-1 0-1.5.1l.5.4c.3-.1.7-.1 1-.2zM514.4 1.7c-.1-.1-.4-.1-.6-.1-.7.1-1.4.1-2.1.1h-1.4c-.2.1-.3.3-.5.4 1.4-.1 2.8-.1 4.1-.2.3.1.6-.1.5-.2zM507.7 2.2h.2c.3 0 .8 0 .8-.1s-.3-.2-.5-.3h-1c-.1.2-.4.4.5.4zM44.8 30.9c-.6.2-1.2.3-2 .4-.3 0-.4.1-.3.2.1.1.5.1.6.1 1.3-.2 2.8-.3 4.1-.6 2.5-.2 4.9-.6 7.4-.8 1.2 0 2.3-.1 3.4-.3.8-.2 1.7-.3 2.6-.3.3-.1.6-.2 1.1-.2.6 0 1.2 0 1.7-.1.1 0 .3-.1.3-.1 0-.1-.2-.1-.5-.1h-.5c-2.8.4-5.6.6-8.5.9-.2 0-.4.1-.6.2-2.2.2-4.3.4-6.5.6-.2.1-.6.2-1 .2-.3-.2-.9-.2-1.3-.1zM187 20.8c.7-.1 1.3-.1 2-.1 1.4.2 2.8 0 4.2-.1-1.1-.3-2.2-.4-3.6-.3-1.6.1-3.2.4-4.8.2l-.2.1s0 .1.1.1c.7.1 1.5.2 2.3.1zM198.3 20.6c.5 0 .9-.1 1.4-.2.4.3 1 .4 1.8.2.7-.1 1.3-.1 1.9-.1h7.7c.4 0 .8-.1 1-.2.7-.2 1.1.2 1.8.1 1.7-.3 3.4-.2 5.2-.3.3 0 .7 0 .9-.2.1-.1.3-.2.3-.3 0-.1-.2-.1-.5-.1-3.7-.1-7.4 0-11.1.2-1.4 0-2.7.2-4.1.2-.8 0-1.6.1-2.3.3-.2-.1-.3-.1-.5 0h-.5c-.2 0-.4-.1-.5-.1h-.5c-.7 0-1.4 0-2 .1-.8.1-1.4.1-2.1.1-.3 0-.9-.1-1 .2-.1.2.4.2.8.3.7 0 1.5-.1 2.3-.2zM233.2 19.3c-.6 0-1.2 0-1.7.1-1.6.3-3.3.3-4.9.3-.6 0-1.1.1-1.7.1-.2 0-.3.1-.1.1 0 0 .1 0 .1.1.4.1.9.1 1.4.1 2-.1 4-.1 6-.2.7 0 1.3 0 2-.1 1.3.2 2.7.2 4-.1 1 0 1.9.2 2.9 0 .2-.1.7 0 1 0 1 .1 2 0 2.9 0 4.2-.1 8.5-.3 12.7-.4v-.4c-5.1.2-10.2.4-15.3.5-.7 0-1.5.1-2.2 0-1.1-.1-2.3 0-3.4 0h-.5c-.7-.3-1.7-.1-2.5-.1h-.7zM40.3 29.3h.5c1.8-.2 3.6-.5 5.5-.7-.2-.1-.5-.2-.8-.1-1.7.2-3.4.5-5.1.7-.1-.1-.2 0-.1.1zM120.3 18.8c-.2.1-.3.3-.5.4.6 0 1-.1 1.5-.2-.2-.2-.6-.2-1-.2zM116.4 19.6c.6-.1 1.2-.1 1.8-.2-.2-.1-.6-.2-1-.2-.5 0-1 0-1.4.1-.1.4-.1.4.6.3zM577 14.4c-.2-.1-.5-.1-1-.2-.7 0-1.4.2-2 .4-.5.2-.1.4.1.6.1.1.1.2.2.4 0 0 .2.1.4.1.1 0 .4 0 .4-.1.1-.4.8-.6 1.6-.8.1 0 .2 0 .2-.1.1 0 .3-.1.1-.3zM571.3 11.6c.7 0 1.5-.3 1.3-.6 0 0-.1 0-.1-.1-.6 0-1.5.4-1.3.6 0 .1 0 .1.1.1zM575.4 11.2c.3-.3 0-.4-.9-.3 0 .1 0 .2.1.3 0 0 .2.1.3.1.3 0 .4 0 .5-.1zM574.9 22.7c-.2 0-.4 0-.6.1-.6.2-.5.4-.6.6 0 .2.2.4.8.5.2 0 .5 0 .7-.1.3-.1.6-.3.8-.5.3-.2.2-.4-.3-.5-.3 0-.6-.1-.8-.1zM572.4 6.7c.1 0 .1 0 .2-.1.1-.2-.8-.4-1.2-.3-.1 0-.3.1-.2.1-.1.3.7.4 1.2.3zM26.5 31.7c1.4-.3 2.8-.6 4.2-.8-.2-.1-.5-.2-.8-.1-1.6.2-3.3.4-4.6.9.3.1.8.1 1.2 0zM26.9 31c1.3-.4 3-.5 4.4-.9.7-.1 1.3-.2 2-.2h.5c.4-.2 1.1-.1 1.5-.2.2-.1.6-.2 1-.3 1.8-.3 3.7-.6 5.5-.9.6-.1 1.1-.2 1.4-.4.2-.1.1-.2-.3-.2h-.7c-.1 0-.2.1-.4.1-1.9.3-3.8.5-5.7.8-.8.1-1.6.2-2.4.2-.2.1-.6.2-1 .2-.2.2-.5.3-1 .4-.2.2-.6.2-1 .2h-.5c-1.1.2-2.2.5-3.2.7-.2.3-.6.4-.1.5zM502.6 5.3c.5 0 .9 0 1.2.1.5-.1.9-.1 1.4-.1 1 0 1.9 0 2.9-.1.1 0 .2-.1.2-.1.1-.1 0-.1-.3-.1-2.1.1-4.2.1-6.3 0 .2.2.4.3.9.3zM50.2 27.9c-.2 0-.4-.1-.5-.1-.9 0-1.7.2-2.4.4-.1 0-.1.1-.1.1.2 0 .4.1.6.1.6-.4 1.5-.4 2.4-.5z"/></g></svg>